%TF.GenerationSoftware,KiCad,Pcbnew,(5.1.9)-1*%
%TF.CreationDate,2021-10-03T12:51:29-04:00*%
%TF.ProjectId,LCK75,4c434b37-352e-46b6-9963-61645f706362,rev?*%
%TF.SameCoordinates,Original*%
%TF.FileFunction,Legend,Bot*%
%TF.FilePolarity,Positive*%
%FSLAX46Y46*%
G04 Gerber Fmt 4.6, Leading zero omitted, Abs format (unit mm)*
G04 Created by KiCad (PCBNEW (5.1.9)-1) date 2021-10-03 12:51:29*
%MOMM*%
%LPD*%
G01*
G04 APERTURE LIST*
%ADD10C,0.250000*%
G04 APERTURE END LIST*
D10*
X121433526Y-139012857D02*
X121662098Y-139012857D01*
X121783526Y-139070000D01*
X121847812Y-139127142D01*
X121983526Y-139298571D01*
X122069241Y-139527142D01*
X122126383Y-139984285D01*
X122083526Y-140098571D01*
X122033526Y-140155714D01*
X121926383Y-140212857D01*
X121697812Y-140212857D01*
X121576383Y-140155714D01*
X121512098Y-140098571D01*
X121440669Y-139984285D01*
X121404955Y-139698571D01*
X121447812Y-139584285D01*
X121497812Y-139527142D01*
X121604955Y-139470000D01*
X121833526Y-139470000D01*
X121954955Y-139527142D01*
X122019241Y-139584285D01*
X122090669Y-139698571D01*
X120940669Y-140098571D02*
X120890669Y-140155714D01*
X120954955Y-140212857D01*
X121004955Y-140155714D01*
X120940669Y-140098571D01*
X120954955Y-140212857D01*
X120304955Y-139127142D02*
X120240669Y-139070000D01*
X120119241Y-139012857D01*
X119833526Y-139012857D01*
X119726383Y-139070000D01*
X119676383Y-139127142D01*
X119633526Y-139241428D01*
X119647812Y-139355714D01*
X119726383Y-139527142D01*
X120497812Y-140212857D01*
X119754955Y-140212857D01*
X118519241Y-139012857D02*
X119090669Y-139012857D01*
X119219241Y-139584285D01*
X119154955Y-139527142D01*
X119033526Y-139470000D01*
X118747812Y-139470000D01*
X118640669Y-139527142D01*
X118590669Y-139584285D01*
X118547812Y-139698571D01*
X118583526Y-139984285D01*
X118654955Y-140098571D01*
X118719241Y-140155714D01*
X118840669Y-140212857D01*
X119126383Y-140212857D01*
X119233526Y-140155714D01*
X119283526Y-140098571D01*
X117483526Y-139412857D02*
X117583526Y-140212857D01*
X117997812Y-139412857D02*
X118076383Y-140041428D01*
X118033526Y-140155714D01*
X117926383Y-140212857D01*
X117754955Y-140212857D01*
X117633526Y-140155714D01*
X117569241Y-140098571D01*
X115774955Y-138877857D02*
X114974955Y-138877857D01*
X115639241Y-140077857D01*
X114053526Y-139277857D02*
X114153526Y-140077857D01*
X114567812Y-139277857D02*
X114646383Y-139906428D01*
X114603526Y-140020714D01*
X114496383Y-140077857D01*
X114324955Y-140077857D01*
X114203526Y-140020714D01*
X114139241Y-139963571D01*
X113296383Y-140535000D02*
X113346383Y-140477857D01*
X113439241Y-140306428D01*
X113482098Y-140192142D01*
X113517812Y-140020714D01*
X113539241Y-139735000D01*
X113510669Y-139506428D01*
X113417812Y-139220714D01*
X113339241Y-139049285D01*
X113267812Y-138935000D01*
X113132098Y-138763571D01*
X113067812Y-138706428D01*
X112746383Y-138877857D02*
X112610669Y-140077857D01*
X112274955Y-139220714D01*
X112153526Y-140077857D01*
X111717812Y-138877857D01*
X111410669Y-140077857D02*
X111260669Y-138877857D01*
X110724955Y-140077857D02*
X111153526Y-139392142D01*
X110574955Y-138877857D02*
X111346383Y-139563571D01*
X109639241Y-140077857D02*
X110210669Y-140077857D01*
X110060669Y-138877857D01*
X109410669Y-140535000D02*
X109346383Y-140477857D01*
X109210669Y-140306428D01*
X109139241Y-140192142D01*
X109060669Y-140020714D01*
X108967812Y-139735000D01*
X108939241Y-139506428D01*
X108960669Y-139220714D01*
X108996383Y-139049285D01*
X109039241Y-138935000D01*
X109132098Y-138763571D01*
X109182098Y-138706428D01*
X32167812Y-140022857D02*
X32853526Y-140022857D01*
X32510669Y-140022857D02*
X32360669Y-138822857D01*
X32496383Y-138994285D01*
X32624955Y-139108571D01*
X32746383Y-139165714D01*
X31639241Y-139908571D02*
X31589241Y-139965714D01*
X31653526Y-140022857D01*
X31703526Y-139965714D01*
X31639241Y-139908571D01*
X31653526Y-140022857D01*
X30360669Y-138822857D02*
X30932098Y-138822857D01*
X31060669Y-139394285D01*
X30996383Y-139337142D01*
X30874955Y-139280000D01*
X30589241Y-139280000D01*
X30482098Y-139337142D01*
X30432098Y-139394285D01*
X30389241Y-139508571D01*
X30424955Y-139794285D01*
X30496383Y-139908571D01*
X30560669Y-139965714D01*
X30682098Y-140022857D01*
X30967812Y-140022857D01*
X31074955Y-139965714D01*
X31124955Y-139908571D01*
X29324955Y-139222857D02*
X29424955Y-140022857D01*
X29839241Y-139222857D02*
X29917812Y-139851428D01*
X29874955Y-139965714D01*
X29767812Y-140022857D01*
X29596383Y-140022857D01*
X29474955Y-139965714D01*
X29410669Y-139908571D01*
X5672812Y-140272857D02*
X6358526Y-140272857D01*
X6015669Y-140272857D02*
X5865669Y-139072857D01*
X6001383Y-139244285D01*
X6129955Y-139358571D01*
X6251383Y-139415714D01*
X5144241Y-140158571D02*
X5094241Y-140215714D01*
X5158526Y-140272857D01*
X5208526Y-140215714D01*
X5144241Y-140158571D01*
X5158526Y-140272857D01*
X3865669Y-139072857D02*
X4437098Y-139072857D01*
X4565669Y-139644285D01*
X4501383Y-139587142D01*
X4379955Y-139530000D01*
X4094241Y-139530000D01*
X3987098Y-139587142D01*
X3937098Y-139644285D01*
X3894241Y-139758571D01*
X3929955Y-140044285D01*
X4001383Y-140158571D01*
X4065669Y-140215714D01*
X4187098Y-140272857D01*
X4472812Y-140272857D01*
X4579955Y-140215714D01*
X4629955Y-140158571D01*
X2829955Y-139472857D02*
X2929955Y-140272857D01*
X3344241Y-139472857D02*
X3422812Y-140101428D01*
X3379955Y-140215714D01*
X3272812Y-140272857D01*
X3101383Y-140272857D01*
X2979955Y-140215714D01*
X2915669Y-140158571D01*
X50009241Y-140477857D02*
X50694955Y-140477857D01*
X50352098Y-140477857D02*
X50202098Y-139277857D01*
X50337812Y-139449285D01*
X50466383Y-139563571D01*
X50587812Y-139620714D01*
X49480669Y-140363571D02*
X49430669Y-140420714D01*
X49494955Y-140477857D01*
X49544955Y-140420714D01*
X49480669Y-140363571D01*
X49494955Y-140477857D01*
X48844955Y-139392142D02*
X48780669Y-139335000D01*
X48659241Y-139277857D01*
X48373526Y-139277857D01*
X48266383Y-139335000D01*
X48216383Y-139392142D01*
X48173526Y-139506428D01*
X48187812Y-139620714D01*
X48266383Y-139792142D01*
X49037812Y-140477857D01*
X48294955Y-140477857D01*
X47059241Y-139277857D02*
X47630669Y-139277857D01*
X47759241Y-139849285D01*
X47694955Y-139792142D01*
X47573526Y-139735000D01*
X47287812Y-139735000D01*
X47180669Y-139792142D01*
X47130669Y-139849285D01*
X47087812Y-139963571D01*
X47123526Y-140249285D01*
X47194955Y-140363571D01*
X47259241Y-140420714D01*
X47380669Y-140477857D01*
X47666383Y-140477857D01*
X47773526Y-140420714D01*
X47823526Y-140363571D01*
X46023526Y-139677857D02*
X46123526Y-140477857D01*
X46537812Y-139677857D02*
X46616383Y-140306428D01*
X46573526Y-140420714D01*
X46466383Y-140477857D01*
X46294955Y-140477857D01*
X46173526Y-140420714D01*
X46109241Y-140363571D01*
X26404241Y-139957857D02*
X27089955Y-139957857D01*
X26747098Y-139957857D02*
X26597098Y-138757857D01*
X26732812Y-138929285D01*
X26861383Y-139043571D01*
X26982812Y-139100714D01*
X25875669Y-139843571D02*
X25825669Y-139900714D01*
X25889955Y-139957857D01*
X25939955Y-139900714D01*
X25875669Y-139843571D01*
X25889955Y-139957857D01*
X25239955Y-138872142D02*
X25175669Y-138815000D01*
X25054241Y-138757857D01*
X24768526Y-138757857D01*
X24661383Y-138815000D01*
X24611383Y-138872142D01*
X24568526Y-138986428D01*
X24582812Y-139100714D01*
X24661383Y-139272142D01*
X25432812Y-139957857D01*
X24689955Y-139957857D01*
X23454241Y-138757857D02*
X24025669Y-138757857D01*
X24154241Y-139329285D01*
X24089955Y-139272142D01*
X23968526Y-139215000D01*
X23682812Y-139215000D01*
X23575669Y-139272142D01*
X23525669Y-139329285D01*
X23482812Y-139443571D01*
X23518526Y-139729285D01*
X23589955Y-139843571D01*
X23654241Y-139900714D01*
X23775669Y-139957857D01*
X24061383Y-139957857D01*
X24168526Y-139900714D01*
X24218526Y-139843571D01*
X22418526Y-139157857D02*
X22518526Y-139957857D01*
X22932812Y-139157857D02*
X23011383Y-139786428D01*
X22968526Y-139900714D01*
X22861383Y-139957857D01*
X22689955Y-139957857D01*
X22568526Y-139900714D01*
X22504241Y-139843571D01*
X1154241Y-140307857D02*
X1839955Y-140307857D01*
X1497098Y-140307857D02*
X1347098Y-139107857D01*
X1482812Y-139279285D01*
X1611383Y-139393571D01*
X1732812Y-139450714D01*
X625669Y-140193571D02*
X575669Y-140250714D01*
X639955Y-140307857D01*
X689955Y-140250714D01*
X625669Y-140193571D01*
X639955Y-140307857D01*
X-10044Y-139222142D02*
X-74330Y-139165000D01*
X-195758Y-139107857D01*
X-481473Y-139107857D01*
X-588616Y-139165000D01*
X-638616Y-139222142D01*
X-681473Y-139336428D01*
X-667187Y-139450714D01*
X-588616Y-139622142D01*
X182812Y-140307857D01*
X-560044Y-140307857D01*
X-1795758Y-139107857D02*
X-1224330Y-139107857D01*
X-1095758Y-139679285D01*
X-1160044Y-139622142D01*
X-1281473Y-139565000D01*
X-1567187Y-139565000D01*
X-1674330Y-139622142D01*
X-1724330Y-139679285D01*
X-1767187Y-139793571D01*
X-1731473Y-140079285D01*
X-1660044Y-140193571D01*
X-1595758Y-140250714D01*
X-1474330Y-140307857D01*
X-1188616Y-140307857D01*
X-1081473Y-140250714D01*
X-1031473Y-140193571D01*
X-2831473Y-139507857D02*
X-2731473Y-140307857D01*
X-2317187Y-139507857D02*
X-2238616Y-140136428D01*
X-2281473Y-140250714D01*
X-2388616Y-140307857D01*
X-2560044Y-140307857D01*
X-2681473Y-140250714D01*
X-2745758Y-140193571D01*
M02*
