%TF.GenerationSoftware,KiCad,Pcbnew,(5.1.9)-1*%
%TF.CreationDate,2021-10-03T12:51:29-04:00*%
%TF.ProjectId,LCK75,4c434b37-352e-46b6-9963-61645f706362,rev?*%
%TF.SameCoordinates,Original*%
%TF.FileFunction,Soldermask,Bot*%
%TF.FilePolarity,Negative*%
%FSLAX46Y46*%
G04 Gerber Fmt 4.6, Leading zero omitted, Abs format (unit mm)*
G04 Created by KiCad (PCBNEW (5.1.9)-1) date 2021-10-03 12:51:29*
%MOMM*%
%LPD*%
G01*
G04 APERTURE LIST*
%ADD10C,1.700000*%
%ADD11C,4.500000*%
%ADD12C,1.624000*%
%ADD13C,2.350000*%
%ADD14C,4.087800*%
%ADD15C,1.850000*%
%ADD16C,3.148000*%
%ADD17C,2.100000*%
%ADD18C,1.300000*%
%ADD19C,1.500000*%
%ADD20C,1.800000*%
%ADD21O,1.700000X1.700000*%
%ADD22O,1.500000X1.500000*%
%ADD23C,1.900000*%
%ADD24C,1.600000*%
%ADD25C,0.800000*%
%ADD26O,1.000000X2.500000*%
%ADD27O,1.000000X1.800000*%
G04 APERTURE END LIST*
D10*
%TO.C,C5*%
X260368800Y-21765700D03*
X255368800Y-21765700D03*
%TD*%
D11*
%TO.C,REF\u002A\u002A*%
X145813518Y-21155300D03*
%TD*%
%TO.C,REF\u002A\u002A*%
X145813518Y-2155300D03*
%TD*%
%TO.C,REF\u002A\u002A*%
X299448868Y-21155300D03*
%TD*%
%TO.C,REF\u002A\u002A*%
X-7826482Y-21155300D03*
%TD*%
%TO.C,REF\u002A\u002A*%
X-7826482Y-2155300D03*
%TD*%
%TO.C,REF\u002A\u002A*%
X299448868Y-2155300D03*
%TD*%
D12*
%TO.C,SSD1306*%
X197078900Y-12288500D03*
X197078900Y-14828500D03*
X197078900Y-17368500D03*
X197078900Y-19908500D03*
%TD*%
D13*
%TO.C,SW81*%
X115017000Y-130785000D03*
D14*
X112477000Y-135865000D03*
D13*
X108667000Y-133325000D03*
D15*
X107397000Y-135865000D03*
X117557000Y-135865000D03*
D16*
X55327000Y-142850000D03*
X169627000Y-142850000D03*
D14*
X55327000Y-127610000D03*
X169627000Y-127610000D03*
%TD*%
D17*
%TO.C,SW87*%
X176910500Y-6684800D03*
X176910500Y-2184800D03*
X183410500Y-6684800D03*
X183410500Y-2184800D03*
%TD*%
D13*
%TO.C,SW90*%
X122167000Y-130772000D03*
D14*
X119627000Y-135852000D03*
D13*
X115817000Y-133312000D03*
D15*
X114547000Y-135852000D03*
X124707000Y-135852000D03*
D16*
X69627100Y-142837000D03*
X169626900Y-142837000D03*
D14*
X69627100Y-127597000D03*
X169626900Y-127597000D03*
%TD*%
D17*
%TO.C,SW91*%
X188683400Y-6608600D03*
X188683400Y-2108600D03*
X195183400Y-6608600D03*
X195183400Y-2108600D03*
%TD*%
D18*
%TO.C,C3*%
X201377300Y-4929400D03*
G36*
G01*
X200777300Y-2779400D02*
X201977300Y-2779400D01*
G75*
G02*
X202027300Y-2829400I0J-50000D01*
G01*
X202027300Y-4029400D01*
G75*
G02*
X201977300Y-4079400I-50000J0D01*
G01*
X200777300Y-4079400D01*
G75*
G02*
X200727300Y-4029400I0J50000D01*
G01*
X200727300Y-2829400D01*
G75*
G02*
X200777300Y-2779400I50000J0D01*
G01*
G37*
%TD*%
D10*
%TO.C,C2*%
X227969200Y-18498200D03*
X225469200Y-18498200D03*
%TD*%
D19*
%TO.C,F1*%
X162388300Y-6284200D03*
X162388300Y-1184200D03*
%TD*%
D10*
%TO.C,C1*%
X228007300Y-3664600D03*
X225507300Y-3664600D03*
%TD*%
D20*
%TO.C,J1*%
X166934900Y-5461400D03*
X166934900Y-2921400D03*
X169474900Y-5461400D03*
X169474900Y-2921400D03*
X172014900Y-5461400D03*
G36*
G01*
X172914900Y-2071400D02*
X172914900Y-3771400D01*
G75*
G02*
X172864900Y-3821400I-50000J0D01*
G01*
X171164900Y-3821400D01*
G75*
G02*
X171114900Y-3771400I0J50000D01*
G01*
X171114900Y-2071400D01*
G75*
G02*
X171164900Y-2021400I50000J0D01*
G01*
X172864900Y-2021400D01*
G75*
G02*
X172914900Y-2071400I0J-50000D01*
G01*
G37*
%TD*%
%TO.C,D83*%
G36*
G01*
X201768300Y-10110500D02*
X203368300Y-10110500D01*
G75*
G02*
X203418300Y-10160500I0J-50000D01*
G01*
X203418300Y-11760500D01*
G75*
G02*
X203368300Y-11810500I-50000J0D01*
G01*
X201768300Y-11810500D01*
G75*
G02*
X201718300Y-11760500I0J50000D01*
G01*
X201718300Y-10160500D01*
G75*
G02*
X201768300Y-10110500I50000J0D01*
G01*
G37*
D21*
X202568300Y-16040500D03*
%TD*%
%TO.C,D84*%
G36*
G01*
X205768300Y-10110500D02*
X207368300Y-10110500D01*
G75*
G02*
X207418300Y-10160500I0J-50000D01*
G01*
X207418300Y-11760500D01*
G75*
G02*
X207368300Y-11810500I-50000J0D01*
G01*
X205768300Y-11810500D01*
G75*
G02*
X205718300Y-11760500I0J50000D01*
G01*
X205718300Y-10160500D01*
G75*
G02*
X205768300Y-10110500I50000J0D01*
G01*
G37*
X206568300Y-16040500D03*
%TD*%
D10*
%TO.C,C4*%
X255394200Y-1603900D03*
X260394200Y-1603900D03*
%TD*%
D22*
%TO.C,R1*%
X211918300Y-18962500D03*
D19*
X219538300Y-18962500D03*
%TD*%
%TO.C,LED1*%
G36*
G01*
X205050100Y-4850100D02*
X205050100Y-3050100D01*
G75*
G02*
X205100100Y-3000100I50000J0D01*
G01*
X206900100Y-3000100D01*
G75*
G02*
X206950100Y-3050100I0J-50000D01*
G01*
X206950100Y-4850100D01*
G75*
G02*
X206900100Y-4900100I-50000J0D01*
G01*
X205100100Y-4900100D01*
G75*
G02*
X205050100Y-4850100I0J50000D01*
G01*
G37*
D23*
X208540100Y-3950100D03*
%TD*%
D15*
%TO.C,SW6*%
X108032000Y-35852500D03*
X97872000Y-35852500D03*
D13*
X99142000Y-33312500D03*
D14*
X102952000Y-35852500D03*
D13*
X105492000Y-30772500D03*
%TD*%
D15*
%TO.C,SW83*%
X227101000Y-135852000D03*
X216941000Y-135852000D03*
D13*
X218211000Y-133312000D03*
D14*
X222021000Y-135852000D03*
D13*
X224561000Y-130772000D03*
%TD*%
D15*
%TO.C,SW89*%
X36623400Y-135830000D03*
X26463400Y-135830000D03*
D13*
X27733400Y-133290000D03*
D14*
X31543400Y-135830000D03*
D13*
X34083400Y-130750000D03*
%TD*%
D15*
%TO.C,SW80*%
X53289500Y-135830000D03*
X43129500Y-135830000D03*
D13*
X44399500Y-133290000D03*
D14*
X48209500Y-135830000D03*
D13*
X50749500Y-130750000D03*
%TD*%
%TO.C,U1*%
G36*
G01*
X233178000Y-20116300D02*
X231578000Y-20116300D01*
G75*
G02*
X231528000Y-20066300I0J50000D01*
G01*
X231528000Y-18466300D01*
G75*
G02*
X231578000Y-18416300I50000J0D01*
G01*
X233178000Y-18416300D01*
G75*
G02*
X233228000Y-18466300I0J-50000D01*
G01*
X233228000Y-20066300D01*
G75*
G02*
X233178000Y-20116300I-50000J0D01*
G01*
G37*
D21*
X280638000Y-4026300D03*
X234918000Y-19266300D03*
X278098000Y-4026300D03*
X237458000Y-19266300D03*
X275558000Y-4026300D03*
X239998000Y-19266300D03*
X273018000Y-4026300D03*
X242538000Y-19266300D03*
X270478000Y-4026300D03*
X245078000Y-19266300D03*
X267938000Y-4026300D03*
X247618000Y-19266300D03*
X265398000Y-4026300D03*
X250158000Y-19266300D03*
X262858000Y-4026300D03*
X252698000Y-19266300D03*
X260318000Y-4026300D03*
X255238000Y-19266300D03*
X257778000Y-4026300D03*
X257778000Y-19266300D03*
X255238000Y-4026300D03*
X260318000Y-19266300D03*
X252698000Y-4026300D03*
X262858000Y-19266300D03*
X250158000Y-4026300D03*
X265398000Y-19266300D03*
X247618000Y-4026300D03*
X267938000Y-19266300D03*
X245078000Y-4026300D03*
X270478000Y-19266300D03*
X242538000Y-4026300D03*
X273018000Y-19266300D03*
X239998000Y-4026300D03*
X275558000Y-19266300D03*
X237458000Y-4026300D03*
X278098000Y-19266300D03*
X234918000Y-4026300D03*
X280638000Y-19266300D03*
X232378000Y-4026300D03*
%TD*%
D15*
%TO.C,SW79*%
X29478400Y-135830000D03*
X19318400Y-135830000D03*
D13*
X20588400Y-133290000D03*
D14*
X24398400Y-135830000D03*
D13*
X26938400Y-130750000D03*
%TD*%
D15*
%TO.C,SW78*%
X5667300Y-135830000D03*
X-4492700Y-135830000D03*
D13*
X-3222700Y-133290000D03*
D14*
X587300Y-135830000D03*
D13*
X3127300Y-130750000D03*
%TD*%
%TO.C,SW26*%
X191230000Y-54559400D03*
D14*
X188690000Y-59639400D03*
D13*
X184880000Y-57099400D03*
D15*
X183610000Y-59639400D03*
X193770000Y-59639400D03*
%TD*%
D14*
%TO.C,SW63*%
X22002250Y-125044000D03*
X-1810250Y-125044000D03*
D16*
X22002250Y-109804000D03*
X-1810250Y-109804000D03*
D15*
X15176000Y-116789000D03*
X5016000Y-116789000D03*
D13*
X6286000Y-114249000D03*
D14*
X10096000Y-116789000D03*
D13*
X12636000Y-111709000D03*
%TD*%
D14*
%TO.C,SW60*%
X264890250Y-105994000D03*
X241077750Y-105994000D03*
D16*
X264890250Y-90754000D03*
X241077750Y-90754000D03*
D15*
X258064000Y-97739000D03*
X247904000Y-97739000D03*
D13*
X249174000Y-95199000D03*
D14*
X252984000Y-97739000D03*
D13*
X255524000Y-92659000D03*
%TD*%
D15*
%TO.C,SW31*%
X8032500Y-78689400D03*
X-2127500Y-78689400D03*
D13*
X-857500Y-76149400D03*
D14*
X2952500Y-78689400D03*
D13*
X5492500Y-73609400D03*
%TD*%
D15*
%TO.C,SW88*%
X8048500Y-135830000D03*
X-2111500Y-135830000D03*
D13*
X-841500Y-133290000D03*
D14*
X2968500Y-135830000D03*
D13*
X5508500Y-130750000D03*
%TD*%
D15*
%TO.C,SW61*%
X298545000Y-97739000D03*
X288385000Y-97739000D03*
D13*
X289655000Y-95199000D03*
D14*
X293465000Y-97739000D03*
D13*
X296005000Y-92659000D03*
%TD*%
D24*
%TO.C,Y1*%
X226777300Y-13446800D03*
X226777300Y-8566800D03*
%TD*%
D13*
%TO.C,SW86*%
X291236000Y-135535000D03*
D14*
X288696000Y-140615000D03*
D13*
X284886000Y-138075000D03*
D15*
X283616000Y-140615000D03*
X293776000Y-140615000D03*
%TD*%
%TO.C,SW84*%
X255676000Y-140615000D03*
X245516000Y-140615000D03*
D13*
X246786000Y-138075000D03*
D14*
X250596000Y-140615000D03*
D13*
X253136000Y-135535000D03*
%TD*%
D15*
%TO.C,SW85*%
X274726000Y-140615000D03*
X264566000Y-140615000D03*
D13*
X265836000Y-138075000D03*
D14*
X269646000Y-140615000D03*
D13*
X272186000Y-135535000D03*
%TD*%
D15*
%TO.C,SW15*%
X298540000Y-35852500D03*
X288380000Y-35852500D03*
D13*
X289650000Y-33312500D03*
D14*
X293460000Y-35852500D03*
D13*
X296000000Y-30772500D03*
%TD*%
D15*
%TO.C,SW82*%
X198526000Y-135852000D03*
X188366000Y-135852000D03*
D13*
X189636000Y-133312000D03*
D14*
X193446000Y-135852000D03*
D13*
X195986000Y-130772000D03*
%TD*%
D15*
%TO.C,SW8*%
X146132000Y-35852500D03*
X135972000Y-35852500D03*
D13*
X137242000Y-33312500D03*
D14*
X141052000Y-35852500D03*
D13*
X143592000Y-30772500D03*
%TD*%
D22*
%TO.C,R7*%
X211918300Y-3962500D03*
D19*
X219538300Y-3962500D03*
%TD*%
D22*
%TO.C,R6*%
X211918300Y-6462500D03*
D19*
X219538300Y-6462500D03*
%TD*%
D22*
%TO.C,R5*%
X211918300Y-8962500D03*
D19*
X219538300Y-8962500D03*
%TD*%
D22*
%TO.C,R4*%
X211918300Y-11462500D03*
D19*
X219538300Y-11462500D03*
%TD*%
D15*
%TO.C,SW33*%
X50895000Y-78689400D03*
X40735000Y-78689400D03*
D13*
X42005000Y-76149400D03*
D14*
X45815000Y-78689400D03*
D13*
X48355000Y-73609400D03*
%TD*%
D15*
%TO.C,SW12*%
X227094000Y-35852500D03*
X216934000Y-35852500D03*
D13*
X218204000Y-33312500D03*
D14*
X222014000Y-35852500D03*
D13*
X224554000Y-30772500D03*
%TD*%
D22*
%TO.C,R3*%
X211918300Y-13962500D03*
D19*
X219538300Y-13962500D03*
%TD*%
D15*
%TO.C,SW25*%
X174720000Y-59639400D03*
X164560000Y-59639400D03*
D13*
X165830000Y-57099400D03*
D14*
X169640000Y-59639400D03*
D13*
X172180000Y-54559400D03*
%TD*%
D22*
%TO.C,R2*%
X211918300Y-16462500D03*
D19*
X219538300Y-16462500D03*
%TD*%
D15*
%TO.C,SW18*%
X41370000Y-59639400D03*
X31210000Y-59639400D03*
D13*
X32480000Y-57099400D03*
D14*
X36290000Y-59639400D03*
D13*
X38830000Y-54559400D03*
%TD*%
D15*
%TO.C,SW7*%
X127082000Y-35852500D03*
X116922000Y-35852500D03*
D13*
X118192000Y-33312500D03*
D14*
X122002000Y-35852500D03*
D13*
X124542000Y-30772500D03*
%TD*%
D15*
%TO.C,SW5*%
X84219800Y-35852500D03*
X74059800Y-35852500D03*
D13*
X75329800Y-33312500D03*
D14*
X79139800Y-35852500D03*
D13*
X81679800Y-30772500D03*
%TD*%
D15*
%TO.C,SW2*%
X27069800Y-35852500D03*
X16909800Y-35852500D03*
D13*
X18179800Y-33312500D03*
D14*
X21989800Y-35852500D03*
D13*
X24529800Y-30772500D03*
%TD*%
D15*
%TO.C,SW19*%
X60420000Y-59639400D03*
X50260000Y-59639400D03*
D13*
X51530000Y-57099400D03*
D14*
X55340000Y-59639400D03*
D13*
X57880000Y-54559400D03*
%TD*%
D15*
%TO.C,SW11*%
X208044000Y-35852500D03*
X197884000Y-35852500D03*
D13*
X199154000Y-33312500D03*
D14*
X202964000Y-35852500D03*
D13*
X205504000Y-30772500D03*
%TD*%
D15*
%TO.C,SW10*%
X188994000Y-35852500D03*
X178834000Y-35852500D03*
D13*
X180104000Y-33312500D03*
D14*
X183914000Y-35852500D03*
D13*
X186454000Y-30772500D03*
%TD*%
D15*
%TO.C,SW3*%
X46119800Y-35852500D03*
X35959800Y-35852500D03*
D13*
X37229800Y-33312500D03*
D14*
X41039800Y-35852500D03*
D13*
X43579800Y-30772500D03*
%TD*%
D15*
%TO.C,SW34*%
X69945000Y-78689400D03*
X59785000Y-78689400D03*
D13*
X61055000Y-76149400D03*
D14*
X64865000Y-78689400D03*
D13*
X67405000Y-73609400D03*
%TD*%
D15*
%TO.C,SW22*%
X117570000Y-59639400D03*
X107410000Y-59639400D03*
D13*
X108680000Y-57099400D03*
D14*
X112490000Y-59639400D03*
D13*
X115030000Y-54559400D03*
%TD*%
D15*
%TO.C,SW16*%
X3270000Y-59639400D03*
X-6890000Y-59639400D03*
D13*
X-5620000Y-57099400D03*
D14*
X-1810000Y-59639400D03*
D13*
X730000Y-54559400D03*
%TD*%
D15*
%TO.C,SW23*%
X136620000Y-59639400D03*
X126460000Y-59639400D03*
D13*
X127730000Y-57099400D03*
D14*
X131540000Y-59639400D03*
D13*
X134080000Y-54559400D03*
%TD*%
D15*
%TO.C,SW14*%
X269965000Y-35852500D03*
X259805000Y-35852500D03*
D13*
X261075000Y-33312500D03*
D14*
X264885000Y-35852500D03*
D13*
X267425000Y-30772500D03*
%TD*%
D15*
%TO.C,SW30*%
X298545000Y-59639400D03*
X288385000Y-59639400D03*
D13*
X289655000Y-57099400D03*
D14*
X293465000Y-59639400D03*
D13*
X296005000Y-54559400D03*
%TD*%
D15*
%TO.C,SW21*%
X98520000Y-59639400D03*
X88360000Y-59639400D03*
D13*
X89630000Y-57099400D03*
D14*
X93440000Y-59639400D03*
D13*
X95980000Y-54559400D03*
%TD*%
D15*
%TO.C,SW20*%
X79470000Y-59639400D03*
X69310000Y-59639400D03*
D13*
X70580000Y-57099400D03*
D14*
X74390000Y-59639400D03*
D13*
X76930000Y-54559400D03*
%TD*%
D15*
%TO.C,SW17*%
X22320000Y-59639400D03*
X12160000Y-59639400D03*
D13*
X13430000Y-57099400D03*
D14*
X17240000Y-59639400D03*
D13*
X19780000Y-54559400D03*
%TD*%
D15*
%TO.C,SW9*%
X165182000Y-35852500D03*
X155022000Y-35852500D03*
D13*
X156292000Y-33312500D03*
D14*
X160102000Y-35852500D03*
D13*
X162642000Y-30772500D03*
%TD*%
D14*
%TO.C,SW29*%
X267271250Y-67894400D03*
X243458750Y-67894400D03*
D16*
X267271250Y-52654400D03*
X243458750Y-52654400D03*
D15*
X260445000Y-59639400D03*
X250285000Y-59639400D03*
D13*
X251555000Y-57099400D03*
D14*
X255365000Y-59639400D03*
D13*
X257905000Y-54559400D03*
%TD*%
D15*
%TO.C,SW28*%
X231870000Y-59639400D03*
X221710000Y-59639400D03*
D13*
X222980000Y-57099400D03*
D14*
X226790000Y-59639400D03*
D13*
X229330000Y-54559400D03*
%TD*%
D15*
%TO.C,SW27*%
X212820000Y-59639400D03*
X202660000Y-59639400D03*
D13*
X203930000Y-57099400D03*
D14*
X207740000Y-59639400D03*
D13*
X210280000Y-54559400D03*
%TD*%
D15*
%TO.C,SW4*%
X65169800Y-35852500D03*
X55009800Y-35852500D03*
D13*
X56279800Y-33312500D03*
D14*
X60089800Y-35852500D03*
D13*
X62629800Y-30772500D03*
%TD*%
%TO.C,SW1*%
X730000Y-30747100D03*
D14*
X-1810000Y-35827100D03*
D13*
X-5620000Y-33287100D03*
D15*
X-6890000Y-35827100D03*
X3270000Y-35827100D03*
%TD*%
%TO.C,SW24*%
X155670000Y-59639400D03*
X145510000Y-59639400D03*
D13*
X146780000Y-57099400D03*
D14*
X150590000Y-59639400D03*
D13*
X153130000Y-54559400D03*
%TD*%
D15*
%TO.C,SW13*%
X246144000Y-35852500D03*
X235984000Y-35852500D03*
D13*
X237254000Y-33312500D03*
D14*
X241064000Y-35852500D03*
D13*
X243604000Y-30772500D03*
%TD*%
D15*
%TO.C,SW32*%
X31845000Y-78689400D03*
X21685000Y-78689400D03*
D13*
X22955000Y-76149400D03*
D14*
X26765000Y-78689400D03*
D13*
X29305000Y-73609400D03*
%TD*%
%TO.C,SW69*%
X119793000Y-111709000D03*
D14*
X117253000Y-116789000D03*
D13*
X113443000Y-114249000D03*
D15*
X112173000Y-116789000D03*
X122333000Y-116789000D03*
%TD*%
%TO.C,SW76*%
X298546000Y-116789000D03*
X288386000Y-116789000D03*
D13*
X289656000Y-114249000D03*
D14*
X293466000Y-116789000D03*
D13*
X296006000Y-111709000D03*
%TD*%
D15*
%TO.C,SW66*%
X65182600Y-116789000D03*
X55022600Y-116789000D03*
D13*
X56292600Y-114249000D03*
D14*
X60102600Y-116789000D03*
D13*
X62642600Y-111709000D03*
%TD*%
D15*
%TO.C,SW65*%
X46132600Y-116789000D03*
X35972600Y-116789000D03*
D13*
X37242600Y-114249000D03*
D14*
X41052600Y-116789000D03*
D13*
X43592600Y-111709000D03*
%TD*%
D15*
%TO.C,SW77*%
X274733000Y-121552000D03*
X264573000Y-121552000D03*
D13*
X265843000Y-119012000D03*
D14*
X269653000Y-121552000D03*
D13*
X272193000Y-116472000D03*
%TD*%
D15*
%TO.C,SW57*%
X208058000Y-97739000D03*
X197898000Y-97739000D03*
D13*
X199168000Y-95199000D03*
D14*
X202978000Y-97739000D03*
D13*
X205518000Y-92659000D03*
%TD*%
D15*
%TO.C,SW51*%
X93757600Y-97739000D03*
X83597600Y-97739000D03*
D13*
X84867600Y-95199000D03*
D14*
X88677600Y-97739000D03*
D13*
X91217600Y-92659000D03*
%TD*%
D15*
%TO.C,SW38*%
X146145000Y-78689400D03*
X135985000Y-78689400D03*
D13*
X137255000Y-76149400D03*
D14*
X141065000Y-78689400D03*
D13*
X143605000Y-73609400D03*
%TD*%
D15*
%TO.C,SW47*%
X10413700Y-97739000D03*
X253700Y-97739000D03*
D13*
X1523700Y-95199000D03*
D14*
X5333700Y-97739000D03*
D13*
X7873700Y-92659000D03*
%TD*%
D15*
%TO.C,SW71*%
X160433000Y-116789000D03*
X150273000Y-116789000D03*
D13*
X151543000Y-114249000D03*
D14*
X155353000Y-116789000D03*
D13*
X157893000Y-111709000D03*
%TD*%
D15*
%TO.C,SW68*%
X103283000Y-116789000D03*
X93123000Y-116789000D03*
D13*
X94393000Y-114249000D03*
D14*
X98203000Y-116789000D03*
D13*
X100743000Y-111709000D03*
%TD*%
D15*
%TO.C,SW39*%
X165195000Y-78689400D03*
X155035000Y-78689400D03*
D13*
X156305000Y-76149400D03*
D14*
X160115000Y-78689400D03*
D13*
X162655000Y-73609400D03*
%TD*%
D15*
%TO.C,SW46*%
X5651300Y-97739000D03*
X-4508700Y-97739000D03*
D13*
X-3238700Y-95199000D03*
D14*
X571300Y-97739000D03*
D13*
X3111300Y-92659000D03*
%TD*%
D15*
%TO.C,SW37*%
X127095000Y-78689400D03*
X116935000Y-78689400D03*
D13*
X118205000Y-76149400D03*
D14*
X122015000Y-78689400D03*
D13*
X124555000Y-73609400D03*
%TD*%
D15*
%TO.C,SW58*%
X227108000Y-97739000D03*
X216948000Y-97739000D03*
D13*
X218218000Y-95199000D03*
D14*
X222028000Y-97739000D03*
D13*
X224568000Y-92659000D03*
%TD*%
D15*
%TO.C,SW75*%
X243777000Y-116789000D03*
X233617000Y-116789000D03*
D13*
X234887000Y-114249000D03*
D14*
X238697000Y-116789000D03*
D13*
X241237000Y-111709000D03*
%TD*%
D15*
%TO.C,SW55*%
X169958000Y-97739000D03*
X159798000Y-97739000D03*
D13*
X161068000Y-95199000D03*
D14*
X164878000Y-97739000D03*
D13*
X167418000Y-92659000D03*
%TD*%
D15*
%TO.C,SW52*%
X112808000Y-97739000D03*
X102648000Y-97739000D03*
D13*
X103918000Y-95199000D03*
D14*
X107728000Y-97739000D03*
D13*
X110268000Y-92659000D03*
%TD*%
D15*
%TO.C,SW49*%
X55657600Y-97739000D03*
X45497600Y-97739000D03*
D13*
X46767600Y-95199000D03*
D14*
X50577600Y-97739000D03*
D13*
X53117600Y-92659000D03*
%TD*%
D15*
%TO.C,SW72*%
X179483000Y-116789000D03*
X169323000Y-116789000D03*
D13*
X170593000Y-114249000D03*
D14*
X174403000Y-116789000D03*
D13*
X176943000Y-111709000D03*
%TD*%
D15*
%TO.C,SW41*%
X203295000Y-78689400D03*
X193135000Y-78689400D03*
D13*
X194405000Y-76149400D03*
D14*
X198215000Y-78689400D03*
D13*
X200755000Y-73609400D03*
%TD*%
D15*
%TO.C,SW74*%
X217583000Y-116789000D03*
X207423000Y-116789000D03*
D13*
X208693000Y-114249000D03*
D14*
X212503000Y-116789000D03*
D13*
X215043000Y-111709000D03*
%TD*%
D15*
%TO.C,SW54*%
X150908000Y-97739000D03*
X140748000Y-97739000D03*
D13*
X142018000Y-95199000D03*
D14*
X145828000Y-97739000D03*
D13*
X148368000Y-92659000D03*
%TD*%
D15*
%TO.C,SW48*%
X36607600Y-97739000D03*
X26447600Y-97739000D03*
D13*
X27717600Y-95199000D03*
D14*
X31527600Y-97739000D03*
D13*
X34067600Y-92659000D03*
%TD*%
D15*
%TO.C,SW36*%
X108045000Y-78689400D03*
X97885000Y-78689400D03*
D13*
X99155000Y-76149400D03*
D14*
X102965000Y-78689400D03*
D13*
X105505000Y-73609400D03*
%TD*%
D15*
%TO.C,SW73*%
X198533000Y-116789000D03*
X188373000Y-116789000D03*
D13*
X189643000Y-114249000D03*
D14*
X193453000Y-116789000D03*
D13*
X195993000Y-111709000D03*
%TD*%
D15*
%TO.C,SW35*%
X88995000Y-78689400D03*
X78835000Y-78689400D03*
D13*
X80105000Y-76149400D03*
D14*
X83915000Y-78689400D03*
D13*
X86455000Y-73609400D03*
%TD*%
D15*
%TO.C,SW67*%
X84232600Y-116789000D03*
X74072600Y-116789000D03*
D13*
X75342600Y-114249000D03*
D14*
X79152600Y-116789000D03*
D13*
X81692600Y-111709000D03*
%TD*%
%TO.C,SW70*%
X138843000Y-111709000D03*
D14*
X136303000Y-116789000D03*
D13*
X132493000Y-114249000D03*
D15*
X131223000Y-116789000D03*
X141383000Y-116789000D03*
%TD*%
%TO.C,SW50*%
X74707600Y-97739000D03*
X64547600Y-97739000D03*
D13*
X65817600Y-95199000D03*
D14*
X69627600Y-97739000D03*
D13*
X72167600Y-92659000D03*
%TD*%
D15*
%TO.C,SW53*%
X131858000Y-97739000D03*
X121698000Y-97739000D03*
D13*
X122968000Y-95199000D03*
D14*
X126778000Y-97739000D03*
D13*
X129318000Y-92659000D03*
%TD*%
D15*
%TO.C,SW45*%
X298545000Y-78689400D03*
X288385000Y-78689400D03*
D13*
X289655000Y-76149400D03*
D14*
X293465000Y-78689400D03*
D13*
X296005000Y-73609400D03*
%TD*%
D15*
%TO.C,SW43*%
X241395000Y-78689400D03*
X231235000Y-78689400D03*
D13*
X232505000Y-76149400D03*
D14*
X236315000Y-78689400D03*
D13*
X238855000Y-73609400D03*
%TD*%
D15*
%TO.C,SW42*%
X222345000Y-78689400D03*
X212185000Y-78689400D03*
D13*
X213455000Y-76149400D03*
D14*
X217265000Y-78689400D03*
D13*
X219805000Y-73609400D03*
%TD*%
D15*
%TO.C,SW56*%
X189008000Y-97739000D03*
X178848000Y-97739000D03*
D13*
X180118000Y-95199000D03*
D14*
X183928000Y-97739000D03*
D13*
X186468000Y-92659000D03*
%TD*%
D15*
%TO.C,SW40*%
X184245000Y-78689400D03*
X174085000Y-78689400D03*
D13*
X175355000Y-76149400D03*
D14*
X179165000Y-78689400D03*
D13*
X181705000Y-73609400D03*
%TD*%
D17*
%TO.C,SW93*%
X295971200Y-28851500D03*
X290971200Y-28851500D03*
G36*
G01*
X300071200Y-37501500D02*
X298071200Y-37501500D01*
G75*
G02*
X298021200Y-37451500I0J50000D01*
G01*
X298021200Y-34251500D01*
G75*
G02*
X298071200Y-34201500I50000J0D01*
G01*
X300071200Y-34201500D01*
G75*
G02*
X300121200Y-34251500I0J-50000D01*
G01*
X300121200Y-37451500D01*
G75*
G02*
X300071200Y-37501500I-50000J0D01*
G01*
G37*
G36*
G01*
X288871200Y-37501500D02*
X286871200Y-37501500D01*
G75*
G02*
X286821200Y-37451500I0J50000D01*
G01*
X286821200Y-34251500D01*
G75*
G02*
X286871200Y-34201500I50000J0D01*
G01*
X288871200Y-34201500D01*
G75*
G02*
X288921200Y-34251500I0J-50000D01*
G01*
X288921200Y-37451500D01*
G75*
G02*
X288871200Y-37501500I-50000J0D01*
G01*
G37*
X295971200Y-43351500D03*
X293471200Y-43351500D03*
G36*
G01*
X291971200Y-44401500D02*
X289971200Y-44401500D01*
G75*
G02*
X289921200Y-44351500I0J50000D01*
G01*
X289921200Y-42351500D01*
G75*
G02*
X289971200Y-42301500I50000J0D01*
G01*
X291971200Y-42301500D01*
G75*
G02*
X292021200Y-42351500I0J-50000D01*
G01*
X292021200Y-44351500D01*
G75*
G02*
X291971200Y-44401500I-50000J0D01*
G01*
G37*
%TD*%
D15*
%TO.C,SW44*%
X265207000Y-78689400D03*
X255047000Y-78689400D03*
D13*
X256317000Y-76149400D03*
D14*
X260127000Y-78689400D03*
D13*
X262667000Y-73609400D03*
%TD*%
D15*
%TO.C,SW59*%
X246158000Y-97739000D03*
X235998000Y-97739000D03*
D13*
X237268000Y-95199000D03*
D14*
X241078000Y-97739000D03*
D13*
X243618000Y-92659000D03*
%TD*%
D15*
%TO.C,SW62*%
X5651300Y-116789000D03*
X-4508700Y-116789000D03*
D13*
X-3238700Y-114249000D03*
D14*
X571300Y-116789000D03*
D13*
X3111300Y-111709000D03*
%TD*%
D15*
%TO.C,SW64*%
X27082300Y-116789000D03*
X16922300Y-116789000D03*
D13*
X18192300Y-114249000D03*
D14*
X22002300Y-116789000D03*
D13*
X24542300Y-111709000D03*
%TD*%
%TO.C,SW92*%
X267588400Y-90754400D03*
D14*
X262508400Y-88214400D03*
D13*
X265048400Y-84404400D03*
D15*
X262508400Y-83134400D03*
X262508400Y-93294400D03*
D16*
X269493400Y-100152400D03*
X269493400Y-76276400D03*
D14*
X254253400Y-100152400D03*
X254253400Y-76276400D03*
%TD*%
D15*
%TO.C,SW94*%
X269970000Y-59639400D03*
X259810000Y-59639400D03*
D13*
X261080000Y-57099400D03*
D14*
X264890000Y-59639400D03*
D13*
X267430000Y-54559400D03*
%TD*%
D15*
%TO.C,SW96*%
X250920000Y-59639400D03*
X240760000Y-59639400D03*
D13*
X242030000Y-57099400D03*
D14*
X245840000Y-59639400D03*
D13*
X248380000Y-54559400D03*
%TD*%
D25*
%TO.C,USB1*%
X75998900Y-5298500D03*
X75148900Y-5298500D03*
X74298900Y-5298500D03*
X73448900Y-5298500D03*
X72598900Y-5298500D03*
X71748900Y-5298500D03*
X70898900Y-5298500D03*
X70048900Y-5298500D03*
X75148900Y-3948500D03*
X73448900Y-3948500D03*
X74298900Y-3948500D03*
X75998900Y-3948500D03*
X71748900Y-3948500D03*
X70898900Y-3948500D03*
X70048900Y-3948500D03*
X72598900Y-3948500D03*
D26*
X77348900Y-4318500D03*
X68698900Y-4318500D03*
D27*
X77348900Y-938500D03*
X68698900Y-938500D03*
%TD*%
D21*
%TO.C,D1*%
X8653900Y-38338500D03*
G36*
G01*
X9453900Y-44268500D02*
X7853900Y-44268500D01*
G75*
G02*
X7803900Y-44218500I0J50000D01*
G01*
X7803900Y-42618500D01*
G75*
G02*
X7853900Y-42568500I50000J0D01*
G01*
X9453900Y-42568500D01*
G75*
G02*
X9503900Y-42618500I0J-50000D01*
G01*
X9503900Y-44218500D01*
G75*
G02*
X9453900Y-44268500I-50000J0D01*
G01*
G37*
%TD*%
%TO.C,D2*%
X11473700Y-38341000D03*
G36*
G01*
X12273700Y-44271000D02*
X10673700Y-44271000D01*
G75*
G02*
X10623700Y-44221000I0J50000D01*
G01*
X10623700Y-42621000D01*
G75*
G02*
X10673700Y-42571000I50000J0D01*
G01*
X12273700Y-42571000D01*
G75*
G02*
X12323700Y-42621000I0J-50000D01*
G01*
X12323700Y-44221000D01*
G75*
G02*
X12273700Y-44271000I-50000J0D01*
G01*
G37*
%TD*%
%TO.C,D3*%
X31873700Y-38341000D03*
G36*
G01*
X32673700Y-44271000D02*
X31073700Y-44271000D01*
G75*
G02*
X31023700Y-44221000I0J50000D01*
G01*
X31023700Y-42621000D01*
G75*
G02*
X31073700Y-42571000I50000J0D01*
G01*
X32673700Y-42571000D01*
G75*
G02*
X32723700Y-42621000I0J-50000D01*
G01*
X32723700Y-44221000D01*
G75*
G02*
X32673700Y-44271000I-50000J0D01*
G01*
G37*
%TD*%
%TO.C,D4*%
X50923700Y-38341000D03*
G36*
G01*
X51723700Y-44271000D02*
X50123700Y-44271000D01*
G75*
G02*
X50073700Y-44221000I0J50000D01*
G01*
X50073700Y-42621000D01*
G75*
G02*
X50123700Y-42571000I50000J0D01*
G01*
X51723700Y-42571000D01*
G75*
G02*
X51773700Y-42621000I0J-50000D01*
G01*
X51773700Y-44221000D01*
G75*
G02*
X51723700Y-44271000I-50000J0D01*
G01*
G37*
%TD*%
%TO.C,D5*%
X69973700Y-38341000D03*
G36*
G01*
X70773700Y-44271000D02*
X69173700Y-44271000D01*
G75*
G02*
X69123700Y-44221000I0J50000D01*
G01*
X69123700Y-42621000D01*
G75*
G02*
X69173700Y-42571000I50000J0D01*
G01*
X70773700Y-42571000D01*
G75*
G02*
X70823700Y-42621000I0J-50000D01*
G01*
X70823700Y-44221000D01*
G75*
G02*
X70773700Y-44271000I-50000J0D01*
G01*
G37*
%TD*%
%TO.C,D6*%
X93191700Y-38341000D03*
G36*
G01*
X93991700Y-44271000D02*
X92391700Y-44271000D01*
G75*
G02*
X92341700Y-44221000I0J50000D01*
G01*
X92341700Y-42621000D01*
G75*
G02*
X92391700Y-42571000I50000J0D01*
G01*
X93991700Y-42571000D01*
G75*
G02*
X94041700Y-42621000I0J-50000D01*
G01*
X94041700Y-44221000D01*
G75*
G02*
X93991700Y-44271000I-50000J0D01*
G01*
G37*
%TD*%
%TO.C,D7*%
X112241700Y-38341000D03*
G36*
G01*
X113041700Y-44271000D02*
X111441700Y-44271000D01*
G75*
G02*
X111391700Y-44221000I0J50000D01*
G01*
X111391700Y-42621000D01*
G75*
G02*
X111441700Y-42571000I50000J0D01*
G01*
X113041700Y-42571000D01*
G75*
G02*
X113091700Y-42621000I0J-50000D01*
G01*
X113091700Y-44221000D01*
G75*
G02*
X113041700Y-44271000I-50000J0D01*
G01*
G37*
%TD*%
%TO.C,D8*%
X131291700Y-38341000D03*
G36*
G01*
X132091700Y-44271000D02*
X130491700Y-44271000D01*
G75*
G02*
X130441700Y-44221000I0J50000D01*
G01*
X130441700Y-42621000D01*
G75*
G02*
X130491700Y-42571000I50000J0D01*
G01*
X132091700Y-42571000D01*
G75*
G02*
X132141700Y-42621000I0J-50000D01*
G01*
X132141700Y-44221000D01*
G75*
G02*
X132091700Y-44271000I-50000J0D01*
G01*
G37*
%TD*%
%TO.C,D9*%
X150341700Y-38341000D03*
G36*
G01*
X151141700Y-44271000D02*
X149541700Y-44271000D01*
G75*
G02*
X149491700Y-44221000I0J50000D01*
G01*
X149491700Y-42621000D01*
G75*
G02*
X149541700Y-42571000I50000J0D01*
G01*
X151141700Y-42571000D01*
G75*
G02*
X151191700Y-42621000I0J-50000D01*
G01*
X151191700Y-44221000D01*
G75*
G02*
X151141700Y-44271000I-50000J0D01*
G01*
G37*
%TD*%
%TO.C,D10*%
X174153700Y-38341000D03*
G36*
G01*
X174953700Y-44271000D02*
X173353700Y-44271000D01*
G75*
G02*
X173303700Y-44221000I0J50000D01*
G01*
X173303700Y-42621000D01*
G75*
G02*
X173353700Y-42571000I50000J0D01*
G01*
X174953700Y-42571000D01*
G75*
G02*
X175003700Y-42621000I0J-50000D01*
G01*
X175003700Y-44221000D01*
G75*
G02*
X174953700Y-44271000I-50000J0D01*
G01*
G37*
%TD*%
%TO.C,D11*%
X193203700Y-38341000D03*
G36*
G01*
X194003700Y-44271000D02*
X192403700Y-44271000D01*
G75*
G02*
X192353700Y-44221000I0J50000D01*
G01*
X192353700Y-42621000D01*
G75*
G02*
X192403700Y-42571000I50000J0D01*
G01*
X194003700Y-42571000D01*
G75*
G02*
X194053700Y-42621000I0J-50000D01*
G01*
X194053700Y-44221000D01*
G75*
G02*
X194003700Y-44271000I-50000J0D01*
G01*
G37*
%TD*%
%TO.C,D12*%
X212253700Y-38341000D03*
G36*
G01*
X213053700Y-44271000D02*
X211453700Y-44271000D01*
G75*
G02*
X211403700Y-44221000I0J50000D01*
G01*
X211403700Y-42621000D01*
G75*
G02*
X211453700Y-42571000I50000J0D01*
G01*
X213053700Y-42571000D01*
G75*
G02*
X213103700Y-42621000I0J-50000D01*
G01*
X213103700Y-44221000D01*
G75*
G02*
X213053700Y-44271000I-50000J0D01*
G01*
G37*
%TD*%
%TO.C,D13*%
X231303700Y-38341000D03*
G36*
G01*
X232103700Y-44271000D02*
X230503700Y-44271000D01*
G75*
G02*
X230453700Y-44221000I0J50000D01*
G01*
X230453700Y-42621000D01*
G75*
G02*
X230503700Y-42571000I50000J0D01*
G01*
X232103700Y-42571000D01*
G75*
G02*
X232153700Y-42621000I0J-50000D01*
G01*
X232153700Y-44221000D01*
G75*
G02*
X232103700Y-44271000I-50000J0D01*
G01*
G37*
%TD*%
%TO.C,D14*%
X255115700Y-38341000D03*
G36*
G01*
X255915700Y-44271000D02*
X254315700Y-44271000D01*
G75*
G02*
X254265700Y-44221000I0J50000D01*
G01*
X254265700Y-42621000D01*
G75*
G02*
X254315700Y-42571000I50000J0D01*
G01*
X255915700Y-42571000D01*
G75*
G02*
X255965700Y-42621000I0J-50000D01*
G01*
X255965700Y-44221000D01*
G75*
G02*
X255915700Y-44271000I-50000J0D01*
G01*
G37*
%TD*%
%TO.C,D15*%
X283927700Y-38341000D03*
G36*
G01*
X284727700Y-44271000D02*
X283127700Y-44271000D01*
G75*
G02*
X283077700Y-44221000I0J50000D01*
G01*
X283077700Y-42621000D01*
G75*
G02*
X283127700Y-42571000I50000J0D01*
G01*
X284727700Y-42571000D01*
G75*
G02*
X284777700Y-42621000I0J-50000D01*
G01*
X284777700Y-44221000D01*
G75*
G02*
X284727700Y-44271000I-50000J0D01*
G01*
G37*
%TD*%
%TO.C,D16*%
X7697600Y-61836700D03*
G36*
G01*
X8497600Y-67766700D02*
X6897600Y-67766700D01*
G75*
G02*
X6847600Y-67716700I0J50000D01*
G01*
X6847600Y-66116700D01*
G75*
G02*
X6897600Y-66066700I50000J0D01*
G01*
X8497600Y-66066700D01*
G75*
G02*
X8547600Y-66116700I0J-50000D01*
G01*
X8547600Y-67716700D01*
G75*
G02*
X8497600Y-67766700I-50000J0D01*
G01*
G37*
%TD*%
%TO.C,D17*%
X26747600Y-61836700D03*
G36*
G01*
X27547600Y-67766700D02*
X25947600Y-67766700D01*
G75*
G02*
X25897600Y-67716700I0J50000D01*
G01*
X25897600Y-66116700D01*
G75*
G02*
X25947600Y-66066700I50000J0D01*
G01*
X27547600Y-66066700D01*
G75*
G02*
X27597600Y-66116700I0J-50000D01*
G01*
X27597600Y-67716700D01*
G75*
G02*
X27547600Y-67766700I-50000J0D01*
G01*
G37*
%TD*%
%TO.C,D18*%
X45797600Y-61836700D03*
G36*
G01*
X46597600Y-67766700D02*
X44997600Y-67766700D01*
G75*
G02*
X44947600Y-67716700I0J50000D01*
G01*
X44947600Y-66116700D01*
G75*
G02*
X44997600Y-66066700I50000J0D01*
G01*
X46597600Y-66066700D01*
G75*
G02*
X46647600Y-66116700I0J-50000D01*
G01*
X46647600Y-67716700D01*
G75*
G02*
X46597600Y-67766700I-50000J0D01*
G01*
G37*
%TD*%
%TO.C,D19*%
X64847600Y-61836700D03*
G36*
G01*
X65647600Y-67766700D02*
X64047600Y-67766700D01*
G75*
G02*
X63997600Y-67716700I0J50000D01*
G01*
X63997600Y-66116700D01*
G75*
G02*
X64047600Y-66066700I50000J0D01*
G01*
X65647600Y-66066700D01*
G75*
G02*
X65697600Y-66116700I0J-50000D01*
G01*
X65697600Y-67716700D01*
G75*
G02*
X65647600Y-67766700I-50000J0D01*
G01*
G37*
%TD*%
%TO.C,D20*%
X83897600Y-61836700D03*
G36*
G01*
X84697600Y-67766700D02*
X83097600Y-67766700D01*
G75*
G02*
X83047600Y-67716700I0J50000D01*
G01*
X83047600Y-66116700D01*
G75*
G02*
X83097600Y-66066700I50000J0D01*
G01*
X84697600Y-66066700D01*
G75*
G02*
X84747600Y-66116700I0J-50000D01*
G01*
X84747600Y-67716700D01*
G75*
G02*
X84697600Y-67766700I-50000J0D01*
G01*
G37*
%TD*%
%TO.C,D21*%
X102947600Y-61836700D03*
G36*
G01*
X103747600Y-67766700D02*
X102147600Y-67766700D01*
G75*
G02*
X102097600Y-67716700I0J50000D01*
G01*
X102097600Y-66116700D01*
G75*
G02*
X102147600Y-66066700I50000J0D01*
G01*
X103747600Y-66066700D01*
G75*
G02*
X103797600Y-66116700I0J-50000D01*
G01*
X103797600Y-67716700D01*
G75*
G02*
X103747600Y-67766700I-50000J0D01*
G01*
G37*
%TD*%
%TO.C,D22*%
X121997600Y-61836700D03*
G36*
G01*
X122797600Y-67766700D02*
X121197600Y-67766700D01*
G75*
G02*
X121147600Y-67716700I0J50000D01*
G01*
X121147600Y-66116700D01*
G75*
G02*
X121197600Y-66066700I50000J0D01*
G01*
X122797600Y-66066700D01*
G75*
G02*
X122847600Y-66116700I0J-50000D01*
G01*
X122847600Y-67716700D01*
G75*
G02*
X122797600Y-67766700I-50000J0D01*
G01*
G37*
%TD*%
%TO.C,D23*%
X141047600Y-61836700D03*
G36*
G01*
X141847600Y-67766700D02*
X140247600Y-67766700D01*
G75*
G02*
X140197600Y-67716700I0J50000D01*
G01*
X140197600Y-66116700D01*
G75*
G02*
X140247600Y-66066700I50000J0D01*
G01*
X141847600Y-66066700D01*
G75*
G02*
X141897600Y-66116700I0J-50000D01*
G01*
X141897600Y-67716700D01*
G75*
G02*
X141847600Y-67766700I-50000J0D01*
G01*
G37*
%TD*%
%TO.C,D24*%
X160097600Y-61836700D03*
G36*
G01*
X160897600Y-67766700D02*
X159297600Y-67766700D01*
G75*
G02*
X159247600Y-67716700I0J50000D01*
G01*
X159247600Y-66116700D01*
G75*
G02*
X159297600Y-66066700I50000J0D01*
G01*
X160897600Y-66066700D01*
G75*
G02*
X160947600Y-66116700I0J-50000D01*
G01*
X160947600Y-67716700D01*
G75*
G02*
X160897600Y-67766700I-50000J0D01*
G01*
G37*
%TD*%
%TO.C,D25*%
X179147600Y-61836700D03*
G36*
G01*
X179947600Y-67766700D02*
X178347600Y-67766700D01*
G75*
G02*
X178297600Y-67716700I0J50000D01*
G01*
X178297600Y-66116700D01*
G75*
G02*
X178347600Y-66066700I50000J0D01*
G01*
X179947600Y-66066700D01*
G75*
G02*
X179997600Y-66116700I0J-50000D01*
G01*
X179997600Y-67716700D01*
G75*
G02*
X179947600Y-67766700I-50000J0D01*
G01*
G37*
%TD*%
%TO.C,D26*%
X198197600Y-61836700D03*
G36*
G01*
X198997600Y-67766700D02*
X197397600Y-67766700D01*
G75*
G02*
X197347600Y-67716700I0J50000D01*
G01*
X197347600Y-66116700D01*
G75*
G02*
X197397600Y-66066700I50000J0D01*
G01*
X198997600Y-66066700D01*
G75*
G02*
X199047600Y-66116700I0J-50000D01*
G01*
X199047600Y-67716700D01*
G75*
G02*
X198997600Y-67766700I-50000J0D01*
G01*
G37*
%TD*%
%TO.C,D27*%
X217247600Y-61836700D03*
G36*
G01*
X218047600Y-67766700D02*
X216447600Y-67766700D01*
G75*
G02*
X216397600Y-67716700I0J50000D01*
G01*
X216397600Y-66116700D01*
G75*
G02*
X216447600Y-66066700I50000J0D01*
G01*
X218047600Y-66066700D01*
G75*
G02*
X218097600Y-66116700I0J-50000D01*
G01*
X218097600Y-67716700D01*
G75*
G02*
X218047600Y-67766700I-50000J0D01*
G01*
G37*
%TD*%
%TO.C,D28*%
X236297600Y-61836700D03*
G36*
G01*
X237097600Y-67766700D02*
X235497600Y-67766700D01*
G75*
G02*
X235447600Y-67716700I0J50000D01*
G01*
X235447600Y-66116700D01*
G75*
G02*
X235497600Y-66066700I50000J0D01*
G01*
X237097600Y-66066700D01*
G75*
G02*
X237147600Y-66116700I0J-50000D01*
G01*
X237147600Y-67716700D01*
G75*
G02*
X237097600Y-67766700I-50000J0D01*
G01*
G37*
%TD*%
%TO.C,D29*%
X274628900Y-61878500D03*
G36*
G01*
X275428900Y-67808500D02*
X273828900Y-67808500D01*
G75*
G02*
X273778900Y-67758500I0J50000D01*
G01*
X273778900Y-66158500D01*
G75*
G02*
X273828900Y-66108500I50000J0D01*
G01*
X275428900Y-66108500D01*
G75*
G02*
X275478900Y-66158500I0J-50000D01*
G01*
X275478900Y-67758500D01*
G75*
G02*
X275428900Y-67808500I-50000J0D01*
G01*
G37*
%TD*%
%TO.C,D30*%
X283847600Y-61836700D03*
G36*
G01*
X284647600Y-67766700D02*
X283047600Y-67766700D01*
G75*
G02*
X282997600Y-67716700I0J50000D01*
G01*
X282997600Y-66116700D01*
G75*
G02*
X283047600Y-66066700I50000J0D01*
G01*
X284647600Y-66066700D01*
G75*
G02*
X284697600Y-66116700I0J-50000D01*
G01*
X284697600Y-67716700D01*
G75*
G02*
X284647600Y-67766700I-50000J0D01*
G01*
G37*
%TD*%
%TO.C,D31*%
X12703900Y-81072600D03*
G36*
G01*
X13503900Y-87002600D02*
X11903900Y-87002600D01*
G75*
G02*
X11853900Y-86952600I0J50000D01*
G01*
X11853900Y-85352600D01*
G75*
G02*
X11903900Y-85302600I50000J0D01*
G01*
X13503900Y-85302600D01*
G75*
G02*
X13553900Y-85352600I0J-50000D01*
G01*
X13553900Y-86952600D01*
G75*
G02*
X13503900Y-87002600I-50000J0D01*
G01*
G37*
%TD*%
%TO.C,D32*%
X15692600Y-81072600D03*
G36*
G01*
X16492600Y-87002600D02*
X14892600Y-87002600D01*
G75*
G02*
X14842600Y-86952600I0J50000D01*
G01*
X14842600Y-85352600D01*
G75*
G02*
X14892600Y-85302600I50000J0D01*
G01*
X16492600Y-85302600D01*
G75*
G02*
X16542600Y-85352600I0J-50000D01*
G01*
X16542600Y-86952600D01*
G75*
G02*
X16492600Y-87002600I-50000J0D01*
G01*
G37*
%TD*%
%TO.C,D33*%
X36217600Y-81197600D03*
G36*
G01*
X37017600Y-87127600D02*
X35417600Y-87127600D01*
G75*
G02*
X35367600Y-87077600I0J50000D01*
G01*
X35367600Y-85477600D01*
G75*
G02*
X35417600Y-85427600I50000J0D01*
G01*
X37017600Y-85427600D01*
G75*
G02*
X37067600Y-85477600I0J-50000D01*
G01*
X37067600Y-87077600D01*
G75*
G02*
X37017600Y-87127600I-50000J0D01*
G01*
G37*
%TD*%
%TO.C,D34*%
X55267600Y-81197600D03*
G36*
G01*
X56067600Y-87127600D02*
X54467600Y-87127600D01*
G75*
G02*
X54417600Y-87077600I0J50000D01*
G01*
X54417600Y-85477600D01*
G75*
G02*
X54467600Y-85427600I50000J0D01*
G01*
X56067600Y-85427600D01*
G75*
G02*
X56117600Y-85477600I0J-50000D01*
G01*
X56117600Y-87077600D01*
G75*
G02*
X56067600Y-87127600I-50000J0D01*
G01*
G37*
%TD*%
%TO.C,D35*%
X74317600Y-81197600D03*
G36*
G01*
X75117600Y-87127600D02*
X73517600Y-87127600D01*
G75*
G02*
X73467600Y-87077600I0J50000D01*
G01*
X73467600Y-85477600D01*
G75*
G02*
X73517600Y-85427600I50000J0D01*
G01*
X75117600Y-85427600D01*
G75*
G02*
X75167600Y-85477600I0J-50000D01*
G01*
X75167600Y-87077600D01*
G75*
G02*
X75117600Y-87127600I-50000J0D01*
G01*
G37*
%TD*%
%TO.C,D36*%
X93367600Y-81197600D03*
G36*
G01*
X94167600Y-87127600D02*
X92567600Y-87127600D01*
G75*
G02*
X92517600Y-87077600I0J50000D01*
G01*
X92517600Y-85477600D01*
G75*
G02*
X92567600Y-85427600I50000J0D01*
G01*
X94167600Y-85427600D01*
G75*
G02*
X94217600Y-85477600I0J-50000D01*
G01*
X94217600Y-87077600D01*
G75*
G02*
X94167600Y-87127600I-50000J0D01*
G01*
G37*
%TD*%
%TO.C,D37*%
X112417600Y-81194800D03*
G36*
G01*
X113217600Y-87124800D02*
X111617600Y-87124800D01*
G75*
G02*
X111567600Y-87074800I0J50000D01*
G01*
X111567600Y-85474800D01*
G75*
G02*
X111617600Y-85424800I50000J0D01*
G01*
X113217600Y-85424800D01*
G75*
G02*
X113267600Y-85474800I0J-50000D01*
G01*
X113267600Y-87074800D01*
G75*
G02*
X113217600Y-87124800I-50000J0D01*
G01*
G37*
%TD*%
%TO.C,D38*%
X131467600Y-81194800D03*
G36*
G01*
X132267600Y-87124800D02*
X130667600Y-87124800D01*
G75*
G02*
X130617600Y-87074800I0J50000D01*
G01*
X130617600Y-85474800D01*
G75*
G02*
X130667600Y-85424800I50000J0D01*
G01*
X132267600Y-85424800D01*
G75*
G02*
X132317600Y-85474800I0J-50000D01*
G01*
X132317600Y-87074800D01*
G75*
G02*
X132267600Y-87124800I-50000J0D01*
G01*
G37*
%TD*%
%TO.C,D39*%
X150517600Y-81194800D03*
G36*
G01*
X151317600Y-87124800D02*
X149717600Y-87124800D01*
G75*
G02*
X149667600Y-87074800I0J50000D01*
G01*
X149667600Y-85474800D01*
G75*
G02*
X149717600Y-85424800I50000J0D01*
G01*
X151317600Y-85424800D01*
G75*
G02*
X151367600Y-85474800I0J-50000D01*
G01*
X151367600Y-87074800D01*
G75*
G02*
X151317600Y-87124800I-50000J0D01*
G01*
G37*
%TD*%
%TO.C,D40*%
X169567600Y-81194800D03*
G36*
G01*
X170367600Y-87124800D02*
X168767600Y-87124800D01*
G75*
G02*
X168717600Y-87074800I0J50000D01*
G01*
X168717600Y-85474800D01*
G75*
G02*
X168767600Y-85424800I50000J0D01*
G01*
X170367600Y-85424800D01*
G75*
G02*
X170417600Y-85474800I0J-50000D01*
G01*
X170417600Y-87074800D01*
G75*
G02*
X170367600Y-87124800I-50000J0D01*
G01*
G37*
%TD*%
%TO.C,D41*%
X188617600Y-81194800D03*
G36*
G01*
X189417600Y-87124800D02*
X187817600Y-87124800D01*
G75*
G02*
X187767600Y-87074800I0J50000D01*
G01*
X187767600Y-85474800D01*
G75*
G02*
X187817600Y-85424800I50000J0D01*
G01*
X189417600Y-85424800D01*
G75*
G02*
X189467600Y-85474800I0J-50000D01*
G01*
X189467600Y-87074800D01*
G75*
G02*
X189417600Y-87124800I-50000J0D01*
G01*
G37*
%TD*%
%TO.C,D42*%
X207667600Y-81194800D03*
G36*
G01*
X208467600Y-87124800D02*
X206867600Y-87124800D01*
G75*
G02*
X206817600Y-87074800I0J50000D01*
G01*
X206817600Y-85474800D01*
G75*
G02*
X206867600Y-85424800I50000J0D01*
G01*
X208467600Y-85424800D01*
G75*
G02*
X208517600Y-85474800I0J-50000D01*
G01*
X208517600Y-87074800D01*
G75*
G02*
X208467600Y-87124800I-50000J0D01*
G01*
G37*
%TD*%
%TO.C,D43*%
X226717600Y-81194800D03*
G36*
G01*
X227517600Y-87124800D02*
X225917600Y-87124800D01*
G75*
G02*
X225867600Y-87074800I0J50000D01*
G01*
X225867600Y-85474800D01*
G75*
G02*
X225917600Y-85424800I50000J0D01*
G01*
X227517600Y-85424800D01*
G75*
G02*
X227567600Y-85474800I0J-50000D01*
G01*
X227567600Y-87074800D01*
G75*
G02*
X227517600Y-87124800I-50000J0D01*
G01*
G37*
%TD*%
%TO.C,D44*%
X283917600Y-81197600D03*
G36*
G01*
X284717600Y-87127600D02*
X283117600Y-87127600D01*
G75*
G02*
X283067600Y-87077600I0J50000D01*
G01*
X283067600Y-85477600D01*
G75*
G02*
X283117600Y-85427600I50000J0D01*
G01*
X284717600Y-85427600D01*
G75*
G02*
X284767600Y-85477600I0J-50000D01*
G01*
X284767600Y-87077600D01*
G75*
G02*
X284717600Y-87127600I-50000J0D01*
G01*
G37*
%TD*%
%TO.C,D45*%
X19278900Y-98433500D03*
G36*
G01*
X20078900Y-104363500D02*
X18478900Y-104363500D01*
G75*
G02*
X18428900Y-104313500I0J50000D01*
G01*
X18428900Y-102713500D01*
G75*
G02*
X18478900Y-102663500I50000J0D01*
G01*
X20078900Y-102663500D01*
G75*
G02*
X20128900Y-102713500I0J-50000D01*
G01*
X20128900Y-104313500D01*
G75*
G02*
X20078900Y-104363500I-50000J0D01*
G01*
G37*
%TD*%
%TO.C,D46*%
X22278900Y-98433500D03*
G36*
G01*
X23078900Y-104363500D02*
X21478900Y-104363500D01*
G75*
G02*
X21428900Y-104313500I0J50000D01*
G01*
X21428900Y-102713500D01*
G75*
G02*
X21478900Y-102663500I50000J0D01*
G01*
X23078900Y-102663500D01*
G75*
G02*
X23128900Y-102713500I0J-50000D01*
G01*
X23128900Y-104313500D01*
G75*
G02*
X23078900Y-104363500I-50000J0D01*
G01*
G37*
%TD*%
%TO.C,D47*%
X41277800Y-98422100D03*
G36*
G01*
X42077800Y-104352100D02*
X40477800Y-104352100D01*
G75*
G02*
X40427800Y-104302100I0J50000D01*
G01*
X40427800Y-102702100D01*
G75*
G02*
X40477800Y-102652100I50000J0D01*
G01*
X42077800Y-102652100D01*
G75*
G02*
X42127800Y-102702100I0J-50000D01*
G01*
X42127800Y-104302100D01*
G75*
G02*
X42077800Y-104352100I-50000J0D01*
G01*
G37*
%TD*%
%TO.C,D48*%
X60327800Y-98422100D03*
G36*
G01*
X61127800Y-104352100D02*
X59527800Y-104352100D01*
G75*
G02*
X59477800Y-104302100I0J50000D01*
G01*
X59477800Y-102702100D01*
G75*
G02*
X59527800Y-102652100I50000J0D01*
G01*
X61127800Y-102652100D01*
G75*
G02*
X61177800Y-102702100I0J-50000D01*
G01*
X61177800Y-104302100D01*
G75*
G02*
X61127800Y-104352100I-50000J0D01*
G01*
G37*
%TD*%
%TO.C,D49*%
X79377800Y-98422100D03*
G36*
G01*
X80177800Y-104352100D02*
X78577800Y-104352100D01*
G75*
G02*
X78527800Y-104302100I0J50000D01*
G01*
X78527800Y-102702100D01*
G75*
G02*
X78577800Y-102652100I50000J0D01*
G01*
X80177800Y-102652100D01*
G75*
G02*
X80227800Y-102702100I0J-50000D01*
G01*
X80227800Y-104302100D01*
G75*
G02*
X80177800Y-104352100I-50000J0D01*
G01*
G37*
%TD*%
%TO.C,D50*%
X98427800Y-98422100D03*
G36*
G01*
X99227800Y-104352100D02*
X97627800Y-104352100D01*
G75*
G02*
X97577800Y-104302100I0J50000D01*
G01*
X97577800Y-102702100D01*
G75*
G02*
X97627800Y-102652100I50000J0D01*
G01*
X99227800Y-102652100D01*
G75*
G02*
X99277800Y-102702100I0J-50000D01*
G01*
X99277800Y-104302100D01*
G75*
G02*
X99227800Y-104352100I-50000J0D01*
G01*
G37*
%TD*%
%TO.C,D51*%
X117477800Y-98422100D03*
G36*
G01*
X118277800Y-104352100D02*
X116677800Y-104352100D01*
G75*
G02*
X116627800Y-104302100I0J50000D01*
G01*
X116627800Y-102702100D01*
G75*
G02*
X116677800Y-102652100I50000J0D01*
G01*
X118277800Y-102652100D01*
G75*
G02*
X118327800Y-102702100I0J-50000D01*
G01*
X118327800Y-104302100D01*
G75*
G02*
X118277800Y-104352100I-50000J0D01*
G01*
G37*
%TD*%
%TO.C,D52*%
X136527800Y-98422100D03*
G36*
G01*
X137327800Y-104352100D02*
X135727800Y-104352100D01*
G75*
G02*
X135677800Y-104302100I0J50000D01*
G01*
X135677800Y-102702100D01*
G75*
G02*
X135727800Y-102652100I50000J0D01*
G01*
X137327800Y-102652100D01*
G75*
G02*
X137377800Y-102702100I0J-50000D01*
G01*
X137377800Y-104302100D01*
G75*
G02*
X137327800Y-104352100I-50000J0D01*
G01*
G37*
%TD*%
%TO.C,D53*%
X155577800Y-98422100D03*
G36*
G01*
X156377800Y-104352100D02*
X154777800Y-104352100D01*
G75*
G02*
X154727800Y-104302100I0J50000D01*
G01*
X154727800Y-102702100D01*
G75*
G02*
X154777800Y-102652100I50000J0D01*
G01*
X156377800Y-102652100D01*
G75*
G02*
X156427800Y-102702100I0J-50000D01*
G01*
X156427800Y-104302100D01*
G75*
G02*
X156377800Y-104352100I-50000J0D01*
G01*
G37*
%TD*%
%TO.C,D54*%
X174627800Y-98422100D03*
G36*
G01*
X175427800Y-104352100D02*
X173827800Y-104352100D01*
G75*
G02*
X173777800Y-104302100I0J50000D01*
G01*
X173777800Y-102702100D01*
G75*
G02*
X173827800Y-102652100I50000J0D01*
G01*
X175427800Y-102652100D01*
G75*
G02*
X175477800Y-102702100I0J-50000D01*
G01*
X175477800Y-104302100D01*
G75*
G02*
X175427800Y-104352100I-50000J0D01*
G01*
G37*
%TD*%
%TO.C,D55*%
X193677800Y-98422100D03*
G36*
G01*
X194477800Y-104352100D02*
X192877800Y-104352100D01*
G75*
G02*
X192827800Y-104302100I0J50000D01*
G01*
X192827800Y-102702100D01*
G75*
G02*
X192877800Y-102652100I50000J0D01*
G01*
X194477800Y-102652100D01*
G75*
G02*
X194527800Y-102702100I0J-50000D01*
G01*
X194527800Y-104302100D01*
G75*
G02*
X194477800Y-104352100I-50000J0D01*
G01*
G37*
%TD*%
%TO.C,D56*%
X212727800Y-98422100D03*
G36*
G01*
X213527800Y-104352100D02*
X211927800Y-104352100D01*
G75*
G02*
X211877800Y-104302100I0J50000D01*
G01*
X211877800Y-102702100D01*
G75*
G02*
X211927800Y-102652100I50000J0D01*
G01*
X213527800Y-102652100D01*
G75*
G02*
X213577800Y-102702100I0J-50000D01*
G01*
X213577800Y-104302100D01*
G75*
G02*
X213527800Y-104352100I-50000J0D01*
G01*
G37*
%TD*%
%TO.C,D57*%
X231648900Y-98348500D03*
G36*
G01*
X232448900Y-104278500D02*
X230848900Y-104278500D01*
G75*
G02*
X230798900Y-104228500I0J50000D01*
G01*
X230798900Y-102628500D01*
G75*
G02*
X230848900Y-102578500I50000J0D01*
G01*
X232448900Y-102578500D01*
G75*
G02*
X232498900Y-102628500I0J-50000D01*
G01*
X232498900Y-104228500D01*
G75*
G02*
X232448900Y-104278500I-50000J0D01*
G01*
G37*
%TD*%
%TO.C,D58*%
X283827800Y-98422100D03*
G36*
G01*
X284627800Y-104352100D02*
X283027800Y-104352100D01*
G75*
G02*
X282977800Y-104302100I0J50000D01*
G01*
X282977800Y-102702100D01*
G75*
G02*
X283027800Y-102652100I50000J0D01*
G01*
X284627800Y-102652100D01*
G75*
G02*
X284677800Y-102702100I0J-50000D01*
G01*
X284677800Y-104302100D01*
G75*
G02*
X284627800Y-104352100I-50000J0D01*
G01*
G37*
%TD*%
%TO.C,D59*%
X30353900Y-116753500D03*
G36*
G01*
X31153900Y-122683500D02*
X29553900Y-122683500D01*
G75*
G02*
X29503900Y-122633500I0J50000D01*
G01*
X29503900Y-121033500D01*
G75*
G02*
X29553900Y-120983500I50000J0D01*
G01*
X31153900Y-120983500D01*
G75*
G02*
X31203900Y-121033500I0J-50000D01*
G01*
X31203900Y-122633500D01*
G75*
G02*
X31153900Y-122683500I-50000J0D01*
G01*
G37*
%TD*%
%TO.C,D60*%
X8398900Y-126343500D03*
G36*
G01*
X14328900Y-125543500D02*
X14328900Y-127143500D01*
G75*
G02*
X14278900Y-127193500I-50000J0D01*
G01*
X12678900Y-127193500D01*
G75*
G02*
X12628900Y-127143500I0J50000D01*
G01*
X12628900Y-125543500D01*
G75*
G02*
X12678900Y-125493500I50000J0D01*
G01*
X14278900Y-125493500D01*
G75*
G02*
X14328900Y-125543500I0J-50000D01*
G01*
G37*
%TD*%
%TO.C,D61*%
X32688900Y-116798500D03*
G36*
G01*
X33488900Y-122728500D02*
X31888900Y-122728500D01*
G75*
G02*
X31838900Y-122678500I0J50000D01*
G01*
X31838900Y-121078500D01*
G75*
G02*
X31888900Y-121028500I50000J0D01*
G01*
X33488900Y-121028500D01*
G75*
G02*
X33538900Y-121078500I0J-50000D01*
G01*
X33538900Y-122678500D01*
G75*
G02*
X33488900Y-122728500I-50000J0D01*
G01*
G37*
%TD*%
%TO.C,D62*%
X50806100Y-116700700D03*
G36*
G01*
X51606100Y-122630700D02*
X50006100Y-122630700D01*
G75*
G02*
X49956100Y-122580700I0J50000D01*
G01*
X49956100Y-120980700D01*
G75*
G02*
X50006100Y-120930700I50000J0D01*
G01*
X51606100Y-120930700D01*
G75*
G02*
X51656100Y-120980700I0J-50000D01*
G01*
X51656100Y-122580700D01*
G75*
G02*
X51606100Y-122630700I-50000J0D01*
G01*
G37*
%TD*%
%TO.C,D63*%
X69856100Y-116700700D03*
G36*
G01*
X70656100Y-122630700D02*
X69056100Y-122630700D01*
G75*
G02*
X69006100Y-122580700I0J50000D01*
G01*
X69006100Y-120980700D01*
G75*
G02*
X69056100Y-120930700I50000J0D01*
G01*
X70656100Y-120930700D01*
G75*
G02*
X70706100Y-120980700I0J-50000D01*
G01*
X70706100Y-122580700D01*
G75*
G02*
X70656100Y-122630700I-50000J0D01*
G01*
G37*
%TD*%
%TO.C,D64*%
X88906100Y-116700700D03*
G36*
G01*
X89706100Y-122630700D02*
X88106100Y-122630700D01*
G75*
G02*
X88056100Y-122580700I0J50000D01*
G01*
X88056100Y-120980700D01*
G75*
G02*
X88106100Y-120930700I50000J0D01*
G01*
X89706100Y-120930700D01*
G75*
G02*
X89756100Y-120980700I0J-50000D01*
G01*
X89756100Y-122580700D01*
G75*
G02*
X89706100Y-122630700I-50000J0D01*
G01*
G37*
%TD*%
%TO.C,D65*%
X107956100Y-116700700D03*
G36*
G01*
X108756100Y-122630700D02*
X107156100Y-122630700D01*
G75*
G02*
X107106100Y-122580700I0J50000D01*
G01*
X107106100Y-120980700D01*
G75*
G02*
X107156100Y-120930700I50000J0D01*
G01*
X108756100Y-120930700D01*
G75*
G02*
X108806100Y-120980700I0J-50000D01*
G01*
X108806100Y-122580700D01*
G75*
G02*
X108756100Y-122630700I-50000J0D01*
G01*
G37*
%TD*%
%TO.C,D66*%
X127006100Y-116700700D03*
G36*
G01*
X127806100Y-122630700D02*
X126206100Y-122630700D01*
G75*
G02*
X126156100Y-122580700I0J50000D01*
G01*
X126156100Y-120980700D01*
G75*
G02*
X126206100Y-120930700I50000J0D01*
G01*
X127806100Y-120930700D01*
G75*
G02*
X127856100Y-120980700I0J-50000D01*
G01*
X127856100Y-122580700D01*
G75*
G02*
X127806100Y-122630700I-50000J0D01*
G01*
G37*
%TD*%
%TO.C,D67*%
X146056100Y-116700700D03*
G36*
G01*
X146856100Y-122630700D02*
X145256100Y-122630700D01*
G75*
G02*
X145206100Y-122580700I0J50000D01*
G01*
X145206100Y-120980700D01*
G75*
G02*
X145256100Y-120930700I50000J0D01*
G01*
X146856100Y-120930700D01*
G75*
G02*
X146906100Y-120980700I0J-50000D01*
G01*
X146906100Y-122580700D01*
G75*
G02*
X146856100Y-122630700I-50000J0D01*
G01*
G37*
%TD*%
%TO.C,D68*%
X165106100Y-116700700D03*
G36*
G01*
X165906100Y-122630700D02*
X164306100Y-122630700D01*
G75*
G02*
X164256100Y-122580700I0J50000D01*
G01*
X164256100Y-120980700D01*
G75*
G02*
X164306100Y-120930700I50000J0D01*
G01*
X165906100Y-120930700D01*
G75*
G02*
X165956100Y-120980700I0J-50000D01*
G01*
X165956100Y-122580700D01*
G75*
G02*
X165906100Y-122630700I-50000J0D01*
G01*
G37*
%TD*%
%TO.C,D69*%
X184156100Y-116700700D03*
G36*
G01*
X184956100Y-122630700D02*
X183356100Y-122630700D01*
G75*
G02*
X183306100Y-122580700I0J50000D01*
G01*
X183306100Y-120980700D01*
G75*
G02*
X183356100Y-120930700I50000J0D01*
G01*
X184956100Y-120930700D01*
G75*
G02*
X185006100Y-120980700I0J-50000D01*
G01*
X185006100Y-122580700D01*
G75*
G02*
X184956100Y-122630700I-50000J0D01*
G01*
G37*
%TD*%
%TO.C,D70*%
X203206100Y-116700700D03*
G36*
G01*
X204006100Y-122630700D02*
X202406100Y-122630700D01*
G75*
G02*
X202356100Y-122580700I0J50000D01*
G01*
X202356100Y-120980700D01*
G75*
G02*
X202406100Y-120930700I50000J0D01*
G01*
X204006100Y-120930700D01*
G75*
G02*
X204056100Y-120980700I0J-50000D01*
G01*
X204056100Y-122580700D01*
G75*
G02*
X204006100Y-122630700I-50000J0D01*
G01*
G37*
%TD*%
%TO.C,D71*%
X225256100Y-116700700D03*
G36*
G01*
X226056100Y-122630700D02*
X224456100Y-122630700D01*
G75*
G02*
X224406100Y-122580700I0J50000D01*
G01*
X224406100Y-120980700D01*
G75*
G02*
X224456100Y-120930700I50000J0D01*
G01*
X226056100Y-120930700D01*
G75*
G02*
X226106100Y-120980700I0J-50000D01*
G01*
X226106100Y-122580700D01*
G75*
G02*
X226056100Y-122630700I-50000J0D01*
G01*
G37*
%TD*%
%TO.C,D73*%
X259492500Y-122161700D03*
G36*
G01*
X260292500Y-128091700D02*
X258692500Y-128091700D01*
G75*
G02*
X258642500Y-128041700I0J50000D01*
G01*
X258642500Y-126441700D01*
G75*
G02*
X258692500Y-126391700I50000J0D01*
G01*
X260292500Y-126391700D01*
G75*
G02*
X260342500Y-126441700I0J-50000D01*
G01*
X260342500Y-128041700D01*
G75*
G02*
X260292500Y-128091700I-50000J0D01*
G01*
G37*
%TD*%
%TO.C,D74*%
X12178900Y-137304800D03*
G36*
G01*
X12978900Y-143234800D02*
X11378900Y-143234800D01*
G75*
G02*
X11328900Y-143184800I0J50000D01*
G01*
X11328900Y-141584800D01*
G75*
G02*
X11378900Y-141534800I50000J0D01*
G01*
X12978900Y-141534800D01*
G75*
G02*
X13028900Y-141584800I0J-50000D01*
G01*
X13028900Y-143184800D01*
G75*
G02*
X12978900Y-143234800I-50000J0D01*
G01*
G37*
%TD*%
%TO.C,D75*%
X15048900Y-137304800D03*
G36*
G01*
X15848900Y-143234800D02*
X14248900Y-143234800D01*
G75*
G02*
X14198900Y-143184800I0J50000D01*
G01*
X14198900Y-141584800D01*
G75*
G02*
X14248900Y-141534800I50000J0D01*
G01*
X15848900Y-141534800D01*
G75*
G02*
X15898900Y-141584800I0J-50000D01*
G01*
X15898900Y-143184800D01*
G75*
G02*
X15848900Y-143234800I-50000J0D01*
G01*
G37*
%TD*%
%TO.C,D76*%
X39903900Y-137203500D03*
G36*
G01*
X40703900Y-143133500D02*
X39103900Y-143133500D01*
G75*
G02*
X39053900Y-143083500I0J50000D01*
G01*
X39053900Y-141483500D01*
G75*
G02*
X39103900Y-141433500I50000J0D01*
G01*
X40703900Y-141433500D01*
G75*
G02*
X40753900Y-141483500I0J-50000D01*
G01*
X40753900Y-143083500D01*
G75*
G02*
X40703900Y-143133500I-50000J0D01*
G01*
G37*
%TD*%
%TO.C,D77*%
X103396800Y-135375800D03*
G36*
G01*
X104196800Y-141305800D02*
X102596800Y-141305800D01*
G75*
G02*
X102546800Y-141255800I0J50000D01*
G01*
X102546800Y-139655800D01*
G75*
G02*
X102596800Y-139605800I50000J0D01*
G01*
X104196800Y-139605800D01*
G75*
G02*
X104246800Y-139655800I0J-50000D01*
G01*
X104246800Y-141255800D01*
G75*
G02*
X104196800Y-141305800I-50000J0D01*
G01*
G37*
%TD*%
%TO.C,D78*%
X183444900Y-135750700D03*
G36*
G01*
X184244900Y-141680700D02*
X182644900Y-141680700D01*
G75*
G02*
X182594900Y-141630700I0J50000D01*
G01*
X182594900Y-140030700D01*
G75*
G02*
X182644900Y-139980700I50000J0D01*
G01*
X184244900Y-139980700D01*
G75*
G02*
X184294900Y-140030700I0J-50000D01*
G01*
X184294900Y-141630700D01*
G75*
G02*
X184244900Y-141680700I-50000J0D01*
G01*
G37*
%TD*%
%TO.C,D79*%
X211931000Y-135750700D03*
G36*
G01*
X212731000Y-141680700D02*
X211131000Y-141680700D01*
G75*
G02*
X211081000Y-141630700I0J50000D01*
G01*
X211081000Y-140030700D01*
G75*
G02*
X211131000Y-139980700I50000J0D01*
G01*
X212731000Y-139980700D01*
G75*
G02*
X212781000Y-140030700I0J-50000D01*
G01*
X212781000Y-141630700D01*
G75*
G02*
X212731000Y-141680700I-50000J0D01*
G01*
G37*
%TD*%
%TO.C,D80*%
X240439200Y-140779900D03*
G36*
G01*
X241239200Y-146709900D02*
X239639200Y-146709900D01*
G75*
G02*
X239589200Y-146659900I0J50000D01*
G01*
X239589200Y-145059900D01*
G75*
G02*
X239639200Y-145009900I50000J0D01*
G01*
X241239200Y-145009900D01*
G75*
G02*
X241289200Y-145059900I0J-50000D01*
G01*
X241289200Y-146659900D01*
G75*
G02*
X241239200Y-146709900I-50000J0D01*
G01*
G37*
%TD*%
%TO.C,D81*%
X260489200Y-140779900D03*
G36*
G01*
X261289200Y-146709900D02*
X259689200Y-146709900D01*
G75*
G02*
X259639200Y-146659900I0J50000D01*
G01*
X259639200Y-145059900D01*
G75*
G02*
X259689200Y-145009900I50000J0D01*
G01*
X261289200Y-145009900D01*
G75*
G02*
X261339200Y-145059900I0J-50000D01*
G01*
X261339200Y-146659900D01*
G75*
G02*
X261289200Y-146709900I-50000J0D01*
G01*
G37*
%TD*%
%TO.C,D82*%
X279539200Y-140779900D03*
G36*
G01*
X280339200Y-146709900D02*
X278739200Y-146709900D01*
G75*
G02*
X278689200Y-146659900I0J50000D01*
G01*
X278689200Y-145059900D01*
G75*
G02*
X278739200Y-145009900I50000J0D01*
G01*
X280339200Y-145009900D01*
G75*
G02*
X280389200Y-145059900I0J-50000D01*
G01*
X280389200Y-146659900D01*
G75*
G02*
X280339200Y-146709900I-50000J0D01*
G01*
G37*
%TD*%
%TO.C,D85*%
X274323900Y-98403500D03*
G36*
G01*
X275123900Y-104333500D02*
X273523900Y-104333500D01*
G75*
G02*
X273473900Y-104283500I0J50000D01*
G01*
X273473900Y-102683500D01*
G75*
G02*
X273523900Y-102633500I50000J0D01*
G01*
X275123900Y-102633500D01*
G75*
G02*
X275173900Y-102683500I0J-50000D01*
G01*
X275173900Y-104283500D01*
G75*
G02*
X275123900Y-104333500I-50000J0D01*
G01*
G37*
%TD*%
%TO.C,D87*%
X257873900Y-69223500D03*
G36*
G01*
X251943900Y-70023500D02*
X251943900Y-68423500D01*
G75*
G02*
X251993900Y-68373500I50000J0D01*
G01*
X253593900Y-68373500D01*
G75*
G02*
X253643900Y-68423500I0J-50000D01*
G01*
X253643900Y-70023500D01*
G75*
G02*
X253593900Y-70073500I-50000J0D01*
G01*
X251993900Y-70073500D01*
G75*
G02*
X251943900Y-70023500I0J50000D01*
G01*
G37*
%TD*%
%TO.C,D91*%
X248767600Y-81007600D03*
G36*
G01*
X249567600Y-86937600D02*
X247967600Y-86937600D01*
G75*
G02*
X247917600Y-86887600I0J50000D01*
G01*
X247917600Y-85287600D01*
G75*
G02*
X247967600Y-85237600I50000J0D01*
G01*
X249567600Y-85237600D01*
G75*
G02*
X249617600Y-85287600I0J-50000D01*
G01*
X249617600Y-86887600D01*
G75*
G02*
X249567600Y-86937600I-50000J0D01*
G01*
G37*
%TD*%
%TO.C,D72*%
X283306100Y-116700700D03*
G36*
G01*
X284106100Y-122630700D02*
X282506100Y-122630700D01*
G75*
G02*
X282456100Y-122580700I0J50000D01*
G01*
X282456100Y-120980700D01*
G75*
G02*
X282506100Y-120930700I50000J0D01*
G01*
X284106100Y-120930700D01*
G75*
G02*
X284156100Y-120980700I0J-50000D01*
G01*
X284156100Y-122580700D01*
G75*
G02*
X284106100Y-122630700I-50000J0D01*
G01*
G37*
%TD*%
M02*
