%TF.GenerationSoftware,KiCad,Pcbnew,(5.1.9)-1*%
%TF.CreationDate,2021-09-28T04:32:12-04:00*%
%TF.ProjectId,neoutline,6e656f75-746c-4696-9e65-2e6b69636164,rev?*%
%TF.SameCoordinates,Original*%
%TF.FileFunction,Copper,L1,Top*%
%TF.FilePolarity,Positive*%
%FSLAX46Y46*%
G04 Gerber Fmt 4.6, Leading zero omitted, Abs format (unit mm)*
G04 Created by KiCad (PCBNEW (5.1.9)-1) date 2021-09-28 04:32:12*
%MOMM*%
%LPD*%
G01*
G04 APERTURE LIST*
%TA.AperFunction,ComponentPad*%
%ADD10C,4.400000*%
%TD*%
%TA.AperFunction,ComponentPad*%
%ADD11C,7.500000*%
%TD*%
%TA.AperFunction,NonConductor*%
%ADD12C,0.254000*%
%TD*%
%TA.AperFunction,NonConductor*%
%ADD13C,0.100000*%
%TD*%
G04 APERTURE END LIST*
D10*
%TO.P,REF\u002A\u002A,1*%
%TO.N,N/C*%
X292528868Y-73570270D03*
%TD*%
%TO.P,REF\u002A\u002A,1*%
%TO.N,N/C*%
X247553518Y-56570270D03*
%TD*%
%TO.P,REF\u002A\u002A,1*%
%TO.N,N/C*%
X166583518Y-56570270D03*
%TD*%
%TO.P,REF\u002A\u002A,1*%
%TO.N,N/C*%
X85623518Y-56570270D03*
%TD*%
%TO.P,REF\u002A\u002A,1*%
%TO.N,N/C*%
X4663518Y-56570270D03*
%TD*%
%TO.P,REF\u002A\u002A,1*%
%TO.N,N/C*%
X197528868Y-171570270D03*
%TD*%
%TO.P,REF\u002A\u002A,1*%
%TO.N,N/C*%
X43253518Y-171570270D03*
%TD*%
%TO.P,REF\u002A\u002A,1*%
%TO.N,N/C*%
X293528868Y-171570270D03*
%TD*%
D11*
%TO.P,REF\u002A\u002A,1*%
%TO.N,N/C*%
X267783900Y-43073500D03*
%TD*%
%TO.P,REF\u002A\u002A,1*%
%TO.N,N/C*%
X13008900Y-43098500D03*
%TD*%
D10*
%TO.P,REF\u002A\u002A,1*%
%TO.N,N/C*%
X-12746482Y-171570270D03*
%TD*%
D12*
X297216900Y-23695661D02*
X297397770Y-23750269D01*
X297564592Y-23838970D01*
X297711006Y-23958382D01*
X297831441Y-24103963D01*
X297921299Y-24270152D01*
X297977170Y-24450642D01*
X298001869Y-24685636D01*
X298001868Y-175370046D01*
X297978507Y-175608303D01*
X297923899Y-175789172D01*
X297835197Y-175955996D01*
X297715786Y-176102408D01*
X297570208Y-176222841D01*
X297404015Y-176312702D01*
X297223527Y-176368572D01*
X296988541Y-176393270D01*
X-16196258Y-176393270D01*
X-16434515Y-176369909D01*
X-16615384Y-176315301D01*
X-16782208Y-176226599D01*
X-16928620Y-176107188D01*
X-17049053Y-175961610D01*
X-17138914Y-175795417D01*
X-17194784Y-175614929D01*
X-17219482Y-175379943D01*
X-17219482Y-171262287D01*
X-15873482Y-171262287D01*
X-15873482Y-171878253D01*
X-15753313Y-172482382D01*
X-15517593Y-173051460D01*
X-15175381Y-173563616D01*
X-14739828Y-173999169D01*
X-14227672Y-174341381D01*
X-13658594Y-174577101D01*
X-13054465Y-174697270D01*
X-12438499Y-174697270D01*
X-11834370Y-174577101D01*
X-11265292Y-174341381D01*
X-10753136Y-173999169D01*
X-10317583Y-173563616D01*
X-9975371Y-173051460D01*
X-9739651Y-172482382D01*
X-9619482Y-171878253D01*
X-9619482Y-171262287D01*
X40126518Y-171262287D01*
X40126518Y-171878253D01*
X40246687Y-172482382D01*
X40482407Y-173051460D01*
X40824619Y-173563616D01*
X41260172Y-173999169D01*
X41772328Y-174341381D01*
X42341406Y-174577101D01*
X42945535Y-174697270D01*
X43561501Y-174697270D01*
X44165630Y-174577101D01*
X44734708Y-174341381D01*
X45246864Y-173999169D01*
X45682417Y-173563616D01*
X46024629Y-173051460D01*
X46260349Y-172482382D01*
X46380518Y-171878253D01*
X46380518Y-171262287D01*
X194401868Y-171262287D01*
X194401868Y-171878253D01*
X194522037Y-172482382D01*
X194757757Y-173051460D01*
X195099969Y-173563616D01*
X195535522Y-173999169D01*
X196047678Y-174341381D01*
X196616756Y-174577101D01*
X197220885Y-174697270D01*
X197836851Y-174697270D01*
X198440980Y-174577101D01*
X199010058Y-174341381D01*
X199522214Y-173999169D01*
X199957767Y-173563616D01*
X200299979Y-173051460D01*
X200535699Y-172482382D01*
X200655868Y-171878253D01*
X200655868Y-171262287D01*
X290401868Y-171262287D01*
X290401868Y-171878253D01*
X290522037Y-172482382D01*
X290757757Y-173051460D01*
X291099969Y-173563616D01*
X291535522Y-173999169D01*
X292047678Y-174341381D01*
X292616756Y-174577101D01*
X293220885Y-174697270D01*
X293836851Y-174697270D01*
X294440980Y-174577101D01*
X295010058Y-174341381D01*
X295522214Y-173999169D01*
X295957767Y-173563616D01*
X296299979Y-173051460D01*
X296535699Y-172482382D01*
X296655868Y-171878253D01*
X296655868Y-171262287D01*
X296535699Y-170658158D01*
X296299979Y-170089080D01*
X295957767Y-169576924D01*
X295522214Y-169141371D01*
X295010058Y-168799159D01*
X294440980Y-168563439D01*
X293836851Y-168443270D01*
X293220885Y-168443270D01*
X292616756Y-168563439D01*
X292047678Y-168799159D01*
X291535522Y-169141371D01*
X291099969Y-169576924D01*
X290757757Y-170089080D01*
X290522037Y-170658158D01*
X290401868Y-171262287D01*
X200655868Y-171262287D01*
X200535699Y-170658158D01*
X200299979Y-170089080D01*
X199957767Y-169576924D01*
X199522214Y-169141371D01*
X199010058Y-168799159D01*
X198440980Y-168563439D01*
X197836851Y-168443270D01*
X197220885Y-168443270D01*
X196616756Y-168563439D01*
X196047678Y-168799159D01*
X195535522Y-169141371D01*
X195099969Y-169576924D01*
X194757757Y-170089080D01*
X194522037Y-170658158D01*
X194401868Y-171262287D01*
X46380518Y-171262287D01*
X46260349Y-170658158D01*
X46024629Y-170089080D01*
X45682417Y-169576924D01*
X45246864Y-169141371D01*
X44734708Y-168799159D01*
X44165630Y-168563439D01*
X43561501Y-168443270D01*
X42945535Y-168443270D01*
X42341406Y-168563439D01*
X41772328Y-168799159D01*
X41260172Y-169141371D01*
X40824619Y-169576924D01*
X40482407Y-170089080D01*
X40246687Y-170658158D01*
X40126518Y-171262287D01*
X-9619482Y-171262287D01*
X-9739651Y-170658158D01*
X-9975371Y-170089080D01*
X-10317583Y-169576924D01*
X-10753136Y-169141371D01*
X-11265292Y-168799159D01*
X-11834370Y-168563439D01*
X-12438499Y-168443270D01*
X-13054465Y-168443270D01*
X-13658594Y-168563439D01*
X-14227672Y-168799159D01*
X-14739828Y-169141371D01*
X-15175381Y-169576924D01*
X-15517593Y-170089080D01*
X-15753313Y-170658158D01*
X-15873482Y-171262287D01*
X-17219482Y-171262287D01*
X-17219482Y-73262287D01*
X289401868Y-73262287D01*
X289401868Y-73878253D01*
X289522037Y-74482382D01*
X289757757Y-75051460D01*
X290099969Y-75563616D01*
X290535522Y-75999169D01*
X291047678Y-76341381D01*
X291616756Y-76577101D01*
X292220885Y-76697270D01*
X292836851Y-76697270D01*
X293440980Y-76577101D01*
X294010058Y-76341381D01*
X294522214Y-75999169D01*
X294957767Y-75563616D01*
X295299979Y-75051460D01*
X295535699Y-74482382D01*
X295655868Y-73878253D01*
X295655868Y-73262287D01*
X295535699Y-72658158D01*
X295299979Y-72089080D01*
X294957767Y-71576924D01*
X294522214Y-71141371D01*
X294010058Y-70799159D01*
X293440980Y-70563439D01*
X292836851Y-70443270D01*
X292220885Y-70443270D01*
X291616756Y-70563439D01*
X291047678Y-70799159D01*
X290535522Y-71141371D01*
X290099969Y-71576924D01*
X289757757Y-72089080D01*
X289522037Y-72658158D01*
X289401868Y-73262287D01*
X-17219482Y-73262287D01*
X-17219482Y-56262287D01*
X1536518Y-56262287D01*
X1536518Y-56878253D01*
X1656687Y-57482382D01*
X1892407Y-58051460D01*
X2234619Y-58563616D01*
X2670172Y-58999169D01*
X3182328Y-59341381D01*
X3751406Y-59577101D01*
X4355535Y-59697270D01*
X4971501Y-59697270D01*
X5575630Y-59577101D01*
X6144708Y-59341381D01*
X6656864Y-58999169D01*
X7092417Y-58563616D01*
X7434629Y-58051460D01*
X7670349Y-57482382D01*
X7790518Y-56878253D01*
X7790518Y-56262287D01*
X82496518Y-56262287D01*
X82496518Y-56878253D01*
X82616687Y-57482382D01*
X82852407Y-58051460D01*
X83194619Y-58563616D01*
X83630172Y-58999169D01*
X84142328Y-59341381D01*
X84711406Y-59577101D01*
X85315535Y-59697270D01*
X85931501Y-59697270D01*
X86535630Y-59577101D01*
X87104708Y-59341381D01*
X87616864Y-58999169D01*
X88052417Y-58563616D01*
X88394629Y-58051460D01*
X88630349Y-57482382D01*
X88750518Y-56878253D01*
X88750518Y-56262287D01*
X163456518Y-56262287D01*
X163456518Y-56878253D01*
X163576687Y-57482382D01*
X163812407Y-58051460D01*
X164154619Y-58563616D01*
X164590172Y-58999169D01*
X165102328Y-59341381D01*
X165671406Y-59577101D01*
X166275535Y-59697270D01*
X166891501Y-59697270D01*
X167495630Y-59577101D01*
X168064708Y-59341381D01*
X168576864Y-58999169D01*
X169012417Y-58563616D01*
X169354629Y-58051460D01*
X169590349Y-57482382D01*
X169710518Y-56878253D01*
X169710518Y-56262287D01*
X244426518Y-56262287D01*
X244426518Y-56878253D01*
X244546687Y-57482382D01*
X244782407Y-58051460D01*
X245124619Y-58563616D01*
X245560172Y-58999169D01*
X246072328Y-59341381D01*
X246641406Y-59577101D01*
X247245535Y-59697270D01*
X247861501Y-59697270D01*
X248465630Y-59577101D01*
X249034708Y-59341381D01*
X249546864Y-58999169D01*
X249982417Y-58563616D01*
X250324629Y-58051460D01*
X250560349Y-57482382D01*
X250680518Y-56878253D01*
X250680518Y-56262287D01*
X250560349Y-55658158D01*
X250324629Y-55089080D01*
X249982417Y-54576924D01*
X249546864Y-54141371D01*
X249034708Y-53799159D01*
X248465630Y-53563439D01*
X247861501Y-53443270D01*
X247245535Y-53443270D01*
X246641406Y-53563439D01*
X246072328Y-53799159D01*
X245560172Y-54141371D01*
X245124619Y-54576924D01*
X244782407Y-55089080D01*
X244546687Y-55658158D01*
X244426518Y-56262287D01*
X169710518Y-56262287D01*
X169590349Y-55658158D01*
X169354629Y-55089080D01*
X169012417Y-54576924D01*
X168576864Y-54141371D01*
X168064708Y-53799159D01*
X167495630Y-53563439D01*
X166891501Y-53443270D01*
X166275535Y-53443270D01*
X165671406Y-53563439D01*
X165102328Y-53799159D01*
X164590172Y-54141371D01*
X164154619Y-54576924D01*
X163812407Y-55089080D01*
X163576687Y-55658158D01*
X163456518Y-56262287D01*
X88750518Y-56262287D01*
X88630349Y-55658158D01*
X88394629Y-55089080D01*
X88052417Y-54576924D01*
X87616864Y-54141371D01*
X87104708Y-53799159D01*
X86535630Y-53563439D01*
X85931501Y-53443270D01*
X85315535Y-53443270D01*
X84711406Y-53563439D01*
X84142328Y-53799159D01*
X83630172Y-54141371D01*
X83194619Y-54576924D01*
X82852407Y-55089080D01*
X82616687Y-55658158D01*
X82496518Y-56262287D01*
X7790518Y-56262287D01*
X7670349Y-55658158D01*
X7434629Y-55089080D01*
X7092417Y-54576924D01*
X6656864Y-54141371D01*
X6144708Y-53799159D01*
X5575630Y-53563439D01*
X4971501Y-53443270D01*
X4355535Y-53443270D01*
X3751406Y-53563439D01*
X3182328Y-53799159D01*
X2670172Y-54141371D01*
X2234619Y-54576924D01*
X1892407Y-55089080D01*
X1656687Y-55658158D01*
X1536518Y-56262287D01*
X-17219482Y-56262287D01*
X-17219482Y-42637856D01*
X8331900Y-42637856D01*
X8331900Y-43559144D01*
X8511634Y-44462731D01*
X8864196Y-45313890D01*
X9376037Y-46079914D01*
X10027486Y-46731363D01*
X10793510Y-47243204D01*
X11644669Y-47595766D01*
X12548256Y-47775500D01*
X13469544Y-47775500D01*
X14373131Y-47595766D01*
X15224290Y-47243204D01*
X15990314Y-46731363D01*
X16641763Y-46079914D01*
X17153604Y-45313890D01*
X17506166Y-44462731D01*
X17685900Y-43559144D01*
X17685900Y-42637856D01*
X17680928Y-42612856D01*
X263106900Y-42612856D01*
X263106900Y-43534144D01*
X263286634Y-44437731D01*
X263639196Y-45288890D01*
X264151037Y-46054914D01*
X264802486Y-46706363D01*
X265568510Y-47218204D01*
X266419669Y-47570766D01*
X267323256Y-47750500D01*
X268244544Y-47750500D01*
X269148131Y-47570766D01*
X269999290Y-47218204D01*
X270765314Y-46706363D01*
X271416763Y-46054914D01*
X271928604Y-45288890D01*
X272281166Y-44437731D01*
X272460900Y-43534144D01*
X272460900Y-42612856D01*
X272281166Y-41709269D01*
X271928604Y-40858110D01*
X271416763Y-40092086D01*
X270765314Y-39440637D01*
X269999290Y-38928796D01*
X269148131Y-38576234D01*
X268244544Y-38396500D01*
X267323256Y-38396500D01*
X266419669Y-38576234D01*
X265568510Y-38928796D01*
X264802486Y-39440637D01*
X264151037Y-40092086D01*
X263639196Y-40858110D01*
X263286634Y-41709269D01*
X263106900Y-42612856D01*
X17680928Y-42612856D01*
X17506166Y-41734269D01*
X17153604Y-40883110D01*
X16641763Y-40117086D01*
X15990314Y-39465637D01*
X15224290Y-38953796D01*
X14373131Y-38601234D01*
X13469544Y-38421500D01*
X12548256Y-38421500D01*
X11644669Y-38601234D01*
X10793510Y-38953796D01*
X10027486Y-39465637D01*
X9376037Y-40117086D01*
X8864196Y-40883110D01*
X8511634Y-41734269D01*
X8331900Y-42637856D01*
X-17219482Y-42637856D01*
X-17219482Y-24695524D01*
X-17196121Y-24457268D01*
X-17141513Y-24276398D01*
X-17052812Y-24109576D01*
X-16933400Y-23963162D01*
X-16787819Y-23842727D01*
X-16621630Y-23752869D01*
X-16441140Y-23696998D01*
X-16206155Y-23672300D01*
X296978644Y-23672300D01*
X297216900Y-23695661D01*
%TA.AperFunction,NonConductor*%
D13*
G36*
X297216900Y-23695661D02*
G01*
X297397770Y-23750269D01*
X297564592Y-23838970D01*
X297711006Y-23958382D01*
X297831441Y-24103963D01*
X297921299Y-24270152D01*
X297977170Y-24450642D01*
X298001869Y-24685636D01*
X298001868Y-175370046D01*
X297978507Y-175608303D01*
X297923899Y-175789172D01*
X297835197Y-175955996D01*
X297715786Y-176102408D01*
X297570208Y-176222841D01*
X297404015Y-176312702D01*
X297223527Y-176368572D01*
X296988541Y-176393270D01*
X-16196258Y-176393270D01*
X-16434515Y-176369909D01*
X-16615384Y-176315301D01*
X-16782208Y-176226599D01*
X-16928620Y-176107188D01*
X-17049053Y-175961610D01*
X-17138914Y-175795417D01*
X-17194784Y-175614929D01*
X-17219482Y-175379943D01*
X-17219482Y-171262287D01*
X-15873482Y-171262287D01*
X-15873482Y-171878253D01*
X-15753313Y-172482382D01*
X-15517593Y-173051460D01*
X-15175381Y-173563616D01*
X-14739828Y-173999169D01*
X-14227672Y-174341381D01*
X-13658594Y-174577101D01*
X-13054465Y-174697270D01*
X-12438499Y-174697270D01*
X-11834370Y-174577101D01*
X-11265292Y-174341381D01*
X-10753136Y-173999169D01*
X-10317583Y-173563616D01*
X-9975371Y-173051460D01*
X-9739651Y-172482382D01*
X-9619482Y-171878253D01*
X-9619482Y-171262287D01*
X40126518Y-171262287D01*
X40126518Y-171878253D01*
X40246687Y-172482382D01*
X40482407Y-173051460D01*
X40824619Y-173563616D01*
X41260172Y-173999169D01*
X41772328Y-174341381D01*
X42341406Y-174577101D01*
X42945535Y-174697270D01*
X43561501Y-174697270D01*
X44165630Y-174577101D01*
X44734708Y-174341381D01*
X45246864Y-173999169D01*
X45682417Y-173563616D01*
X46024629Y-173051460D01*
X46260349Y-172482382D01*
X46380518Y-171878253D01*
X46380518Y-171262287D01*
X194401868Y-171262287D01*
X194401868Y-171878253D01*
X194522037Y-172482382D01*
X194757757Y-173051460D01*
X195099969Y-173563616D01*
X195535522Y-173999169D01*
X196047678Y-174341381D01*
X196616756Y-174577101D01*
X197220885Y-174697270D01*
X197836851Y-174697270D01*
X198440980Y-174577101D01*
X199010058Y-174341381D01*
X199522214Y-173999169D01*
X199957767Y-173563616D01*
X200299979Y-173051460D01*
X200535699Y-172482382D01*
X200655868Y-171878253D01*
X200655868Y-171262287D01*
X290401868Y-171262287D01*
X290401868Y-171878253D01*
X290522037Y-172482382D01*
X290757757Y-173051460D01*
X291099969Y-173563616D01*
X291535522Y-173999169D01*
X292047678Y-174341381D01*
X292616756Y-174577101D01*
X293220885Y-174697270D01*
X293836851Y-174697270D01*
X294440980Y-174577101D01*
X295010058Y-174341381D01*
X295522214Y-173999169D01*
X295957767Y-173563616D01*
X296299979Y-173051460D01*
X296535699Y-172482382D01*
X296655868Y-171878253D01*
X296655868Y-171262287D01*
X296535699Y-170658158D01*
X296299979Y-170089080D01*
X295957767Y-169576924D01*
X295522214Y-169141371D01*
X295010058Y-168799159D01*
X294440980Y-168563439D01*
X293836851Y-168443270D01*
X293220885Y-168443270D01*
X292616756Y-168563439D01*
X292047678Y-168799159D01*
X291535522Y-169141371D01*
X291099969Y-169576924D01*
X290757757Y-170089080D01*
X290522037Y-170658158D01*
X290401868Y-171262287D01*
X200655868Y-171262287D01*
X200535699Y-170658158D01*
X200299979Y-170089080D01*
X199957767Y-169576924D01*
X199522214Y-169141371D01*
X199010058Y-168799159D01*
X198440980Y-168563439D01*
X197836851Y-168443270D01*
X197220885Y-168443270D01*
X196616756Y-168563439D01*
X196047678Y-168799159D01*
X195535522Y-169141371D01*
X195099969Y-169576924D01*
X194757757Y-170089080D01*
X194522037Y-170658158D01*
X194401868Y-171262287D01*
X46380518Y-171262287D01*
X46260349Y-170658158D01*
X46024629Y-170089080D01*
X45682417Y-169576924D01*
X45246864Y-169141371D01*
X44734708Y-168799159D01*
X44165630Y-168563439D01*
X43561501Y-168443270D01*
X42945535Y-168443270D01*
X42341406Y-168563439D01*
X41772328Y-168799159D01*
X41260172Y-169141371D01*
X40824619Y-169576924D01*
X40482407Y-170089080D01*
X40246687Y-170658158D01*
X40126518Y-171262287D01*
X-9619482Y-171262287D01*
X-9739651Y-170658158D01*
X-9975371Y-170089080D01*
X-10317583Y-169576924D01*
X-10753136Y-169141371D01*
X-11265292Y-168799159D01*
X-11834370Y-168563439D01*
X-12438499Y-168443270D01*
X-13054465Y-168443270D01*
X-13658594Y-168563439D01*
X-14227672Y-168799159D01*
X-14739828Y-169141371D01*
X-15175381Y-169576924D01*
X-15517593Y-170089080D01*
X-15753313Y-170658158D01*
X-15873482Y-171262287D01*
X-17219482Y-171262287D01*
X-17219482Y-73262287D01*
X289401868Y-73262287D01*
X289401868Y-73878253D01*
X289522037Y-74482382D01*
X289757757Y-75051460D01*
X290099969Y-75563616D01*
X290535522Y-75999169D01*
X291047678Y-76341381D01*
X291616756Y-76577101D01*
X292220885Y-76697270D01*
X292836851Y-76697270D01*
X293440980Y-76577101D01*
X294010058Y-76341381D01*
X294522214Y-75999169D01*
X294957767Y-75563616D01*
X295299979Y-75051460D01*
X295535699Y-74482382D01*
X295655868Y-73878253D01*
X295655868Y-73262287D01*
X295535699Y-72658158D01*
X295299979Y-72089080D01*
X294957767Y-71576924D01*
X294522214Y-71141371D01*
X294010058Y-70799159D01*
X293440980Y-70563439D01*
X292836851Y-70443270D01*
X292220885Y-70443270D01*
X291616756Y-70563439D01*
X291047678Y-70799159D01*
X290535522Y-71141371D01*
X290099969Y-71576924D01*
X289757757Y-72089080D01*
X289522037Y-72658158D01*
X289401868Y-73262287D01*
X-17219482Y-73262287D01*
X-17219482Y-56262287D01*
X1536518Y-56262287D01*
X1536518Y-56878253D01*
X1656687Y-57482382D01*
X1892407Y-58051460D01*
X2234619Y-58563616D01*
X2670172Y-58999169D01*
X3182328Y-59341381D01*
X3751406Y-59577101D01*
X4355535Y-59697270D01*
X4971501Y-59697270D01*
X5575630Y-59577101D01*
X6144708Y-59341381D01*
X6656864Y-58999169D01*
X7092417Y-58563616D01*
X7434629Y-58051460D01*
X7670349Y-57482382D01*
X7790518Y-56878253D01*
X7790518Y-56262287D01*
X82496518Y-56262287D01*
X82496518Y-56878253D01*
X82616687Y-57482382D01*
X82852407Y-58051460D01*
X83194619Y-58563616D01*
X83630172Y-58999169D01*
X84142328Y-59341381D01*
X84711406Y-59577101D01*
X85315535Y-59697270D01*
X85931501Y-59697270D01*
X86535630Y-59577101D01*
X87104708Y-59341381D01*
X87616864Y-58999169D01*
X88052417Y-58563616D01*
X88394629Y-58051460D01*
X88630349Y-57482382D01*
X88750518Y-56878253D01*
X88750518Y-56262287D01*
X163456518Y-56262287D01*
X163456518Y-56878253D01*
X163576687Y-57482382D01*
X163812407Y-58051460D01*
X164154619Y-58563616D01*
X164590172Y-58999169D01*
X165102328Y-59341381D01*
X165671406Y-59577101D01*
X166275535Y-59697270D01*
X166891501Y-59697270D01*
X167495630Y-59577101D01*
X168064708Y-59341381D01*
X168576864Y-58999169D01*
X169012417Y-58563616D01*
X169354629Y-58051460D01*
X169590349Y-57482382D01*
X169710518Y-56878253D01*
X169710518Y-56262287D01*
X244426518Y-56262287D01*
X244426518Y-56878253D01*
X244546687Y-57482382D01*
X244782407Y-58051460D01*
X245124619Y-58563616D01*
X245560172Y-58999169D01*
X246072328Y-59341381D01*
X246641406Y-59577101D01*
X247245535Y-59697270D01*
X247861501Y-59697270D01*
X248465630Y-59577101D01*
X249034708Y-59341381D01*
X249546864Y-58999169D01*
X249982417Y-58563616D01*
X250324629Y-58051460D01*
X250560349Y-57482382D01*
X250680518Y-56878253D01*
X250680518Y-56262287D01*
X250560349Y-55658158D01*
X250324629Y-55089080D01*
X249982417Y-54576924D01*
X249546864Y-54141371D01*
X249034708Y-53799159D01*
X248465630Y-53563439D01*
X247861501Y-53443270D01*
X247245535Y-53443270D01*
X246641406Y-53563439D01*
X246072328Y-53799159D01*
X245560172Y-54141371D01*
X245124619Y-54576924D01*
X244782407Y-55089080D01*
X244546687Y-55658158D01*
X244426518Y-56262287D01*
X169710518Y-56262287D01*
X169590349Y-55658158D01*
X169354629Y-55089080D01*
X169012417Y-54576924D01*
X168576864Y-54141371D01*
X168064708Y-53799159D01*
X167495630Y-53563439D01*
X166891501Y-53443270D01*
X166275535Y-53443270D01*
X165671406Y-53563439D01*
X165102328Y-53799159D01*
X164590172Y-54141371D01*
X164154619Y-54576924D01*
X163812407Y-55089080D01*
X163576687Y-55658158D01*
X163456518Y-56262287D01*
X88750518Y-56262287D01*
X88630349Y-55658158D01*
X88394629Y-55089080D01*
X88052417Y-54576924D01*
X87616864Y-54141371D01*
X87104708Y-53799159D01*
X86535630Y-53563439D01*
X85931501Y-53443270D01*
X85315535Y-53443270D01*
X84711406Y-53563439D01*
X84142328Y-53799159D01*
X83630172Y-54141371D01*
X83194619Y-54576924D01*
X82852407Y-55089080D01*
X82616687Y-55658158D01*
X82496518Y-56262287D01*
X7790518Y-56262287D01*
X7670349Y-55658158D01*
X7434629Y-55089080D01*
X7092417Y-54576924D01*
X6656864Y-54141371D01*
X6144708Y-53799159D01*
X5575630Y-53563439D01*
X4971501Y-53443270D01*
X4355535Y-53443270D01*
X3751406Y-53563439D01*
X3182328Y-53799159D01*
X2670172Y-54141371D01*
X2234619Y-54576924D01*
X1892407Y-55089080D01*
X1656687Y-55658158D01*
X1536518Y-56262287D01*
X-17219482Y-56262287D01*
X-17219482Y-42637856D01*
X8331900Y-42637856D01*
X8331900Y-43559144D01*
X8511634Y-44462731D01*
X8864196Y-45313890D01*
X9376037Y-46079914D01*
X10027486Y-46731363D01*
X10793510Y-47243204D01*
X11644669Y-47595766D01*
X12548256Y-47775500D01*
X13469544Y-47775500D01*
X14373131Y-47595766D01*
X15224290Y-47243204D01*
X15990314Y-46731363D01*
X16641763Y-46079914D01*
X17153604Y-45313890D01*
X17506166Y-44462731D01*
X17685900Y-43559144D01*
X17685900Y-42637856D01*
X17680928Y-42612856D01*
X263106900Y-42612856D01*
X263106900Y-43534144D01*
X263286634Y-44437731D01*
X263639196Y-45288890D01*
X264151037Y-46054914D01*
X264802486Y-46706363D01*
X265568510Y-47218204D01*
X266419669Y-47570766D01*
X267323256Y-47750500D01*
X268244544Y-47750500D01*
X269148131Y-47570766D01*
X269999290Y-47218204D01*
X270765314Y-46706363D01*
X271416763Y-46054914D01*
X271928604Y-45288890D01*
X272281166Y-44437731D01*
X272460900Y-43534144D01*
X272460900Y-42612856D01*
X272281166Y-41709269D01*
X271928604Y-40858110D01*
X271416763Y-40092086D01*
X270765314Y-39440637D01*
X269999290Y-38928796D01*
X269148131Y-38576234D01*
X268244544Y-38396500D01*
X267323256Y-38396500D01*
X266419669Y-38576234D01*
X265568510Y-38928796D01*
X264802486Y-39440637D01*
X264151037Y-40092086D01*
X263639196Y-40858110D01*
X263286634Y-41709269D01*
X263106900Y-42612856D01*
X17680928Y-42612856D01*
X17506166Y-41734269D01*
X17153604Y-40883110D01*
X16641763Y-40117086D01*
X15990314Y-39465637D01*
X15224290Y-38953796D01*
X14373131Y-38601234D01*
X13469544Y-38421500D01*
X12548256Y-38421500D01*
X11644669Y-38601234D01*
X10793510Y-38953796D01*
X10027486Y-39465637D01*
X9376037Y-40117086D01*
X8864196Y-40883110D01*
X8511634Y-41734269D01*
X8331900Y-42637856D01*
X-17219482Y-42637856D01*
X-17219482Y-24695524D01*
X-17196121Y-24457268D01*
X-17141513Y-24276398D01*
X-17052812Y-24109576D01*
X-16933400Y-23963162D01*
X-16787819Y-23842727D01*
X-16621630Y-23752869D01*
X-16441140Y-23696998D01*
X-16206155Y-23672300D01*
X296978644Y-23672300D01*
X297216900Y-23695661D01*
G37*
%TD.AperFunction*%
M02*
