%TF.GenerationSoftware,KiCad,Pcbnew,(5.1.9)-1*%
%TF.CreationDate,2021-10-02T01:37:55-04:00*%
%TF.ProjectId,lckplate,6c636b70-6c61-4746-952e-6b696361645f,rev?*%
%TF.SameCoordinates,Original*%
%TF.FileFunction,Soldermask,Bot*%
%TF.FilePolarity,Negative*%
%FSLAX46Y46*%
G04 Gerber Fmt 4.6, Leading zero omitted, Abs format (unit mm)*
G04 Created by KiCad (PCBNEW (5.1.9)-1) date 2021-10-02 01:37:55*
%MOMM*%
%LPD*%
G01*
G04 APERTURE LIST*
%ADD10C,0.400000*%
%ADD11C,2.300000*%
G04 APERTURE END LIST*
D10*
X119596995Y-156063261D02*
X119430328Y-154729928D01*
X119477947Y-155110880D02*
X119358900Y-154920404D01*
X119251757Y-154825166D01*
X119049376Y-154729928D01*
X118858900Y-154729928D01*
X117585090Y-155968023D02*
X117787471Y-156063261D01*
X118168423Y-156063261D01*
X118346995Y-155968023D01*
X118418423Y-155777547D01*
X118323185Y-155015642D01*
X118204138Y-154825166D01*
X118001757Y-154729928D01*
X117620804Y-154729928D01*
X117442233Y-154825166D01*
X117370804Y-155015642D01*
X117394614Y-155206119D01*
X118370804Y-155396595D01*
X116668423Y-154729928D02*
X116358900Y-156063261D01*
X115716042Y-154729928D01*
X114989852Y-154253738D02*
X114882709Y-154158500D01*
X114680328Y-154063261D01*
X114204138Y-154063261D01*
X114025566Y-154158500D01*
X113942233Y-154253738D01*
X113870804Y-154444214D01*
X113894614Y-154634690D01*
X114025566Y-154920404D01*
X115311280Y-156063261D01*
X114073185Y-156063261D01*
X111299376Y-156729928D02*
X110942233Y-153872785D01*
X107311280Y-156063261D02*
X108263661Y-156063261D01*
X108013661Y-154063261D01*
X106668423Y-154729928D02*
X106358900Y-156063261D01*
X105716042Y-154729928D02*
X106358900Y-156063261D01*
X106608900Y-156539452D01*
X106716042Y-156634690D01*
X106918423Y-156729928D01*
X105204138Y-155968023D02*
X105025566Y-156063261D01*
X104644614Y-156063261D01*
X104442233Y-155968023D01*
X104323185Y-155777547D01*
X104311280Y-155682309D01*
X104382709Y-155491833D01*
X104561280Y-155396595D01*
X104846995Y-155396595D01*
X105025566Y-155301357D01*
X105096995Y-155110880D01*
X105085090Y-155015642D01*
X104966042Y-154825166D01*
X104763661Y-154729928D01*
X104477947Y-154729928D01*
X104299376Y-154825166D01*
X103216042Y-156063261D02*
X103394614Y-155968023D01*
X103477947Y-155872785D01*
X103549376Y-155682309D01*
X103477947Y-155110880D01*
X103358900Y-154920404D01*
X103251757Y-154825166D01*
X103049376Y-154729928D01*
X102763661Y-154729928D01*
X102585090Y-154825166D01*
X102501757Y-154920404D01*
X102430328Y-155110880D01*
X102501757Y-155682309D01*
X102620804Y-155872785D01*
X102727947Y-155968023D01*
X102930328Y-156063261D01*
X103216042Y-156063261D01*
X100644614Y-156063261D02*
X101787471Y-156063261D01*
X101216042Y-156063261D02*
X100966042Y-154063261D01*
X101192233Y-154348976D01*
X101406519Y-154539452D01*
X101608900Y-154634690D01*
X98132709Y-154253738D02*
X98025566Y-154158500D01*
X97823185Y-154063261D01*
X97346995Y-154063261D01*
X97168423Y-154158500D01*
X97085090Y-154253738D01*
X97013661Y-154444214D01*
X97037471Y-154634690D01*
X97168423Y-154920404D01*
X98454138Y-156063261D01*
X97216042Y-156063261D01*
X95727947Y-154063261D02*
X95537471Y-154063261D01*
X95358900Y-154158500D01*
X95275566Y-154253738D01*
X95204138Y-154444214D01*
X95156519Y-154825166D01*
X95216042Y-155301357D01*
X95358900Y-155682309D01*
X95477947Y-155872785D01*
X95585090Y-155968023D01*
X95787471Y-156063261D01*
X95977947Y-156063261D01*
X96156519Y-155968023D01*
X96239852Y-155872785D01*
X96311280Y-155682309D01*
X96358900Y-155301357D01*
X96299376Y-154825166D01*
X96156519Y-154444214D01*
X96037471Y-154253738D01*
X95930328Y-154158500D01*
X95727947Y-154063261D01*
X94323185Y-154253738D02*
X94216042Y-154158500D01*
X94013661Y-154063261D01*
X93537471Y-154063261D01*
X93358900Y-154158500D01*
X93275566Y-154253738D01*
X93204138Y-154444214D01*
X93227947Y-154634690D01*
X93358900Y-154920404D01*
X94644614Y-156063261D01*
X93406519Y-156063261D01*
X91501757Y-156063261D02*
X92644614Y-156063261D01*
X92073185Y-156063261D02*
X91823185Y-154063261D01*
X92049376Y-154348976D01*
X92263661Y-154539452D01*
X92466042Y-154634690D01*
D11*
%TO.C,REF\u002A\u002A*%
X9774817Y-159394163D03*
%TD*%
%TO.C,REF\u002A\u002A*%
X315050167Y-159394163D03*
%TD*%
%TO.C,REF\u002A\u002A*%
X26184817Y-44394163D03*
%TD*%
%TO.C,REF\u002A\u002A*%
X107144817Y-44394163D03*
%TD*%
%TO.C,REF\u002A\u002A*%
X269074817Y-44394163D03*
%TD*%
%TO.C,REF\u002A\u002A*%
X219050167Y-159394163D03*
%TD*%
%TO.C,REF\u002A\u002A*%
X64774817Y-159394163D03*
%TD*%
%TO.C,REF\u002A\u002A*%
X9774817Y-159394163D03*
%TD*%
%TO.C,REF\u002A\u002A*%
X314050167Y-61394163D03*
%TD*%
%TO.C,REF\u002A\u002A*%
X188104817Y-44394163D03*
%TD*%
M02*
