M48
; DRILL file {KiCad (5.1.9)-1} date 10/03/21 12:51:31
; FORMAT={-:-/ absolute / inch / decimal}
; #@! TF.CreationDate,2021-10-03T12:51:31-04:00
; #@! TF.GenerationSoftware,Kicad,Pcbnew,(5.1.9)-1
; #@! TF.FileFunction,Plated,1,2,PTH
FMAT,2
INCH
T1C0.0157
T2C0.0236
T3C0.0276
T4C0.0315
T5C0.0354
T6C0.0394
T7C0.0400
T8C0.0433
T9C0.0579
T10C0.0591
T11C0.0866
%
G90
G05
T1
X2.0583Y-0.8689
X2.7578Y-0.1555
X2.7578Y-0.2086
X2.7913Y-0.1555
X2.7913Y-0.2086
X2.8248Y-0.1555
X2.8248Y-0.2086
X2.8582Y-0.1555
X2.8582Y-0.2086
X2.8917Y-0.1555
X2.8917Y-0.2086
X2.9252Y-0.1555
X2.9252Y-0.2086
X2.9586Y-0.1555
X2.9586Y-0.2086
X2.9921Y-0.1555
X2.9921Y-0.2086
X3.1533Y-0.1813
X3.1533Y-0.2793
X6.6037Y-0.431
X6.7446Y-0.7247
X6.7527Y-0.5285
X6.8837Y-0.5795
X6.8872Y-0.1401
X6.9342Y-0.54
X7.5376Y-0.4413
X7.9098Y-0.7826
X8.7477Y-0.6155
X8.9945Y-0.8778
X9.0457Y-0.903
X9.0892Y-0.928
X9.2527Y-0.93
X9.3672Y-0.9785
X9.5417Y-0.986
X10.1005Y-0.4119
X10.1381Y-0.9695
X10.1558Y-3.3347
X10.2303Y-0.3968
X10.2362Y-0.546
X10.3321Y-0.5418
X10.3476Y-0.3381
X10.387Y-0.3838
X10.4504Y-0.4468
X10.4562Y-0.9665
X10.511Y-0.3373
X10.5522Y-0.929
X10.5618Y-0.3838
X10.5984Y-0.4322
X10.6262Y-0.9035
X10.7317Y-0.892
X11.0787Y-1.5547
X11.112Y-0.1076
X11.1622Y-0.423
X11.1785Y-0.0568
X11.2117Y-0.499
X11.4649Y-0.381
X11.4649Y-0.7086
X11.4935Y-0.3295
X11.5096Y-0.632
X11.8498Y-1.5763
T2
X7.9282Y-0.135
X7.9282Y-0.1941
T3
X6.3932Y-0.0466
X6.3932Y-0.2474
X8.3432Y-0.156
X8.3432Y-0.2544
X8.3432Y-0.3529
X8.3432Y-0.4513
X8.3432Y-0.5497
X8.3432Y-0.6481
X8.3432Y-0.7466
X8.6432Y-0.156
X8.6432Y-0.2544
X8.6432Y-0.3529
X8.6432Y-0.4513
X8.6432Y-0.5497
X8.6432Y-0.6481
X8.6432Y-0.7466
T4
X0.3031Y-2.4345
X0.3031Y-2.6345
X0.3307Y-4.9742
X0.3407Y-1.5094
X0.3407Y-1.7094
X0.4517Y-1.5095
X0.4517Y-1.7095
X0.4795Y-5.4057
X0.4795Y-5.6057
X0.5002Y-3.1918
X0.5002Y-3.3918
X0.5307Y-4.9742
X0.5925Y-5.4057
X0.5925Y-5.6057
X0.6178Y-3.1918
X0.6178Y-3.3918
X0.759Y-3.8753
X0.759Y-4.0753
X0.8771Y-3.8753
X0.8771Y-4.0753
X1.0531Y-2.4345
X1.0531Y-2.6345
X1.195Y-4.5966
X1.195Y-4.7966
X1.2549Y-1.5095
X1.2549Y-1.7095
X1.287Y-4.5984
X1.287Y-4.7984
X1.4259Y-3.1968
X1.4259Y-3.3968
X1.571Y-5.4017
X1.571Y-5.6017
X1.6251Y-3.8749
X1.6251Y-4.0749
X1.8031Y-2.4345
X1.8031Y-2.6345
X2.0002Y-4.5945
X2.0002Y-4.7945
X2.0049Y-1.5095
X2.0049Y-1.7095
X2.1759Y-3.1968
X2.1759Y-3.3968
X2.3751Y-3.8749
X2.3751Y-4.0749
X2.5531Y-2.4345
X2.5531Y-2.6345
X2.7502Y-4.5945
X2.7502Y-4.7945
X2.7549Y-1.5095
X2.7549Y-1.7095
X2.9259Y-3.1968
X2.9259Y-3.3968
X3.1251Y-3.8749
X3.1251Y-4.0749
X3.3031Y-2.4345
X3.3031Y-2.6345
X3.5002Y-4.5945
X3.5002Y-4.7945
X3.669Y-1.5095
X3.669Y-1.7095
X3.6759Y-3.1968
X3.6759Y-3.3968
X3.8751Y-3.8749
X3.8751Y-4.0749
X4.0531Y-2.4345
X4.0531Y-2.6345
X4.0707Y-5.3298
X4.0707Y-5.5298
X4.2502Y-4.5945
X4.2502Y-4.7945
X4.419Y-1.5095
X4.419Y-1.7095
X4.4259Y-3.1966
X4.4259Y-3.3966
X4.6251Y-3.8749
X4.6251Y-4.0749
X4.8031Y-2.4345
X4.8031Y-2.6345
X5.0002Y-4.5945
X5.0002Y-4.7945
X5.169Y-1.5095
X5.169Y-1.7095
X5.1759Y-3.1966
X5.1759Y-3.3966
X5.3751Y-3.8749
X5.3751Y-4.0749
X5.5531Y-2.4345
X5.5531Y-2.6345
X5.7502Y-4.5945
X5.7502Y-4.7945
X5.919Y-1.5095
X5.919Y-1.7095
X5.9259Y-3.1966
X5.9259Y-3.3966
X6.1251Y-3.8749
X6.1251Y-4.0749
X6.3031Y-2.4345
X6.3031Y-2.6345
X6.5002Y-4.5945
X6.5002Y-4.7945
X6.6759Y-3.1966
X6.6759Y-3.3966
X6.8564Y-1.5095
X6.8564Y-1.7095
X6.8751Y-3.8749
X6.8751Y-4.0749
X7.0531Y-2.4345
X7.0531Y-2.6345
X7.2222Y-5.3445
X7.2222Y-5.5445
X7.2502Y-4.5945
X7.2502Y-4.7945
X7.4259Y-3.1966
X7.4259Y-3.3966
X7.6064Y-1.5095
X7.6064Y-1.7095
X7.6251Y-3.8749
X7.6251Y-4.0749
X7.8031Y-2.4345
X7.8031Y-2.6345
X7.9751Y-0.4315
X7.9751Y-0.6315
X8.0002Y-4.5945
X8.0002Y-4.7945
X8.1326Y-0.4315
X8.1326Y-0.6315
X8.1759Y-3.1966
X8.1759Y-3.3966
X8.3437Y-5.3445
X8.3437Y-5.5445
X8.3564Y-1.5095
X8.3564Y-1.7095
X8.3751Y-3.8749
X8.3751Y-4.0749
X8.5531Y-2.4345
X8.5531Y-2.6345
X8.8684Y-4.5945
X8.8684Y-4.7945
X8.8767Y-0.7283
X8.8782Y-0.1443
X8.9259Y-3.1966
X8.9259Y-3.3966
X8.9282Y-0.3373
X8.9282Y-0.5294
X8.9752Y-0.7283
X8.9767Y-0.1443
X9.1064Y-1.5095
X9.1064Y-1.7095
X9.12Y-3.872
X9.12Y-4.072
X9.1487Y-0.1585
X9.1487Y-0.7585
X9.2487Y-0.1585
X9.2487Y-0.7585
X9.3031Y-2.4345
X9.3031Y-2.6345
X9.3487Y-0.1585
X9.3487Y-0.7585
X9.4487Y-0.1585
X9.4487Y-0.7585
X9.4661Y-5.5425
X9.4661Y-5.7425
X9.5487Y-0.1585
X9.5487Y-0.7585
X9.6487Y-0.1585
X9.6487Y-0.7585
X9.7487Y-0.1585
X9.7487Y-0.7585
X9.794Y-3.1893
X9.794Y-3.3893
X9.8487Y-0.1585
X9.8487Y-0.7585
X9.9487Y-0.1585
X9.9487Y-0.7585
X9.9525Y-2.7253
X10.0439Y-1.5095
X10.0439Y-1.7095
X10.0487Y-0.1585
X10.0487Y-0.7585
X10.0539Y-0.8569
X10.0549Y-0.0631
X10.1487Y-0.1585
X10.1487Y-0.7585
X10.1525Y-2.7253
X10.2162Y-4.8095
X10.2162Y-5.0095
X10.2487Y-0.1585
X10.2487Y-0.7585
X10.2507Y-0.8569
X10.2517Y-0.0631
X10.2555Y-5.5425
X10.2555Y-5.7425
X10.3487Y-0.1585
X10.3487Y-0.7585
X10.4487Y-0.1585
X10.4487Y-0.7585
X10.5487Y-0.1585
X10.5487Y-0.7585
X10.6487Y-0.1585
X10.6487Y-0.7585
X10.7487Y-0.1585
X10.7487Y-0.7585
X10.8002Y-3.8742
X10.8002Y-4.0742
X10.8122Y-2.4362
X10.8122Y-2.6362
X10.8487Y-0.1585
X10.8487Y-0.7585
X10.9487Y-0.1585
X10.9487Y-0.7585
X11.0055Y-5.5425
X11.0055Y-5.7425
X11.0487Y-0.1585
X11.0487Y-0.7585
X11.1538Y-4.5945
X11.1538Y-4.7945
X11.1743Y-3.8749
X11.1743Y-4.0749
X11.1751Y-2.4345
X11.1751Y-2.6345
X11.1779Y-3.1968
X11.1779Y-3.3968
X11.1783Y-1.5095
X11.1783Y-1.7095
T5
X7.759Y-0.4838
X7.759Y-0.5838
X7.759Y-0.6838
X7.759Y-0.7838
X8.1102Y-0.1555
X8.2102Y-0.1555
T6
X11.4556Y-1.1359
X11.4556Y-1.7068
X11.554Y-1.7068
X11.6524Y-1.1359
X11.6524Y-1.7068
T7
X6.5722Y-0.115
X6.5722Y-0.215
X6.6722Y-0.115
X6.6722Y-0.215
X6.7722Y-0.115
X6.7722Y-0.215
T8
X6.965Y-0.086
X6.965Y-0.2632
X7.2209Y-0.086
X7.2209Y-0.2632
X7.4285Y-0.083
X7.4285Y-0.2602
X7.6844Y-0.083
X7.6844Y-0.2602
T9
X-0.2213Y-1.3105
X-0.2213Y-2.248
X-0.1275Y-3.748
X-0.1275Y-4.498
X-0.1269Y-5.2476
X-0.0338Y-2.998
X-0.0331Y-5.2476
X0.0287Y-1.2105
X0.0287Y-2.148
X0.06Y-3.748
X0.1225Y-3.648
X0.1225Y-4.398
X0.1231Y-5.1476
X0.2162Y-2.898
X0.2169Y-5.1476
X0.2475Y-4.498
X0.31Y-3.648
X0.4975Y-4.398
X0.5287Y-2.248
X0.7157Y-1.3115
X0.7162Y-4.498
X0.7787Y-2.148
X0.8106Y-5.2476
X0.9037Y-2.998
X0.9657Y-1.2115
X0.9662Y-4.398
X1.0606Y-5.1476
X1.0912Y-3.748
X1.0919Y-5.2476
X1.1537Y-2.898
X1.2787Y-2.248
X1.3412Y-3.648
X1.3419Y-5.1476
X1.4657Y-1.3115
X1.4662Y-4.498
X1.5287Y-2.148
X1.6537Y-2.998
X1.7157Y-1.2115
X1.7162Y-4.398
X1.748Y-5.2476
X1.8412Y-3.748
X1.9037Y-2.898
X1.998Y-5.1476
X2.0287Y-2.248
X2.0912Y-3.648
X2.2157Y-1.3115
X2.2162Y-4.498
X2.2787Y-2.148
X2.4037Y-2.998
X2.4657Y-1.2115
X2.4662Y-4.398
X2.5912Y-3.748
X2.6537Y-2.898
X2.7787Y-2.248
X2.8412Y-3.648
X2.9657Y-1.3115
X2.9662Y-4.498
X3.0287Y-2.148
X3.1537Y-2.998
X3.2157Y-1.2115
X3.2162Y-4.398
X3.3412Y-3.748
X3.4037Y-2.898
X3.5287Y-2.248
X3.5912Y-3.648
X3.7163Y-4.498
X3.7787Y-2.148
X3.9032Y-1.3115
X3.9037Y-2.998
X3.9663Y-4.398
X4.0913Y-3.748
X4.1532Y-1.2115
X4.1537Y-2.898
X4.2782Y-5.249
X4.2787Y-2.248
X4.3413Y-3.648
X4.4663Y-4.498
X4.5282Y-5.149
X4.5287Y-2.148
X4.5597Y-5.2485
X4.6532Y-1.3115
X4.6537Y-2.998
X4.7163Y-4.398
X4.8097Y-5.1485
X4.8413Y-3.748
X4.9032Y-1.2115
X4.9037Y-2.898
X5.0287Y-2.248
X5.0913Y-3.648
X5.2163Y-4.498
X5.2787Y-2.148
X5.4032Y-1.3115
X5.4037Y-2.998
X5.4663Y-4.398
X5.5913Y-3.748
X5.6532Y-1.2115
X5.6537Y-2.898
X5.7787Y-2.248
X5.8413Y-3.648
X5.9663Y-4.498
X6.0287Y-2.148
X6.1532Y-1.3115
X6.1537Y-2.998
X6.2163Y-4.398
X6.3413Y-3.748
X6.4032Y-1.2115
X6.4037Y-2.898
X6.5287Y-2.248
X6.5913Y-3.648
X6.7163Y-4.498
X6.7787Y-2.148
X6.9037Y-2.998
X6.9663Y-4.398
X7.0907Y-1.3115
X7.0913Y-3.748
X7.1537Y-2.898
X7.2787Y-2.248
X7.3407Y-1.2115
X7.3413Y-3.648
X7.466Y-5.2485
X7.4663Y-4.498
X7.5287Y-2.148
X7.6537Y-2.998
X7.716Y-5.1485
X7.7163Y-4.398
X7.8407Y-1.3115
X7.8413Y-3.748
X7.9037Y-2.898
X8.0287Y-2.248
X8.0907Y-1.2115
X8.0913Y-3.648
X8.2163Y-4.498
X8.2787Y-2.148
X8.4037Y-2.998
X8.4663Y-4.398
X8.5907Y-1.3115
X8.591Y-5.2485
X8.5913Y-3.748
X8.6537Y-2.898
X8.7787Y-2.248
X8.8407Y-1.2115
X8.841Y-5.1485
X8.8413Y-3.648
X9.0287Y-2.148
X9.1537Y-2.998
X9.2475Y-4.498
X9.3407Y-1.3115
X9.3413Y-3.748
X9.4037Y-2.898
X9.4975Y-4.398
X9.5287Y-2.248
X9.5907Y-1.2115
X9.5913Y-3.648
X9.716Y-5.436
X9.7787Y-2.148
X9.81Y-3.748
X9.9037Y-2.248
X9.966Y-5.336
X10.06Y-3.648
X10.0912Y-2.998
X10.1537Y-2.148
X10.2785Y-1.3115
X10.2787Y-2.248
X10.3412Y-2.898
X10.435Y-3.323
X10.466Y-5.436
X10.4663Y-4.6855
X10.5285Y-1.2115
X10.5287Y-2.148
X10.535Y-3.573
X10.716Y-5.336
X10.7163Y-4.5855
X11.216Y-5.436
X11.4035Y-1.3115
X11.4037Y-2.248
X11.4037Y-2.998
X11.4037Y-3.748
X11.4038Y-4.498
X11.466Y-5.336
X11.6535Y-1.2115
X11.6537Y-2.148
X11.6537Y-2.898
X11.6537Y-3.648
X11.6538Y-4.398
T11
X-0.3081Y-0.0849
X-0.3081Y-0.8329
X5.7407Y-0.0849
X5.7407Y-0.8329
X11.7893Y-0.0849
X11.7893Y-0.8329
T2
G00X2.7047Y-0.0527
M15
G01X2.7047Y-0.0212
M16
G05
G00X2.7047Y-0.1995
M15
G01X2.7047Y-0.1405
M16
G05
G00X3.0452Y-0.0527
M15
G01X3.0452Y-0.0212
M16
G05
G00X3.0452Y-0.1995
M15
G01X3.0452Y-0.1405
M16
G05
T10
G00X11.3335Y-1.4371
M15
G01X11.3335Y-1.3859
M16
G05
G00X11.7745Y-1.4371
M15
G01X11.7745Y-1.3859
M16
G05
T0
M30
